<svg xmlns="http://www.w3.org/2000/svg" viewBox="0 0 46.985 47"><defs><style>.a{opacity:0.5;}.b{fill:#fff;}</style></defs><g class="a" transform="translate(-0.501 0)"><path class="b" d="M287.339,151.957a.918.918,0,1,0,.918.918A.918.918,0,0,0,287.339,151.957Zm0,0" transform="translate(-259.674 -138.008)"/><path class="b" d="M220.292,331.761a.918.918,0,1,0-1.3,0A.919.919,0,0,0,220.292,331.761Zm0,0" transform="translate(-198.191 -299.884)"/><path class="b" d="M11.072,239.557a.917.917,0,0,0,1.3.008l4.449-4.383a2.773,2.773,0,0,0,.653-2.848l.957-.923a2.737,2.737,0,0,1,1.911-.772h12.2A8.216,8.216,0,0,0,38.3,228.3c.064-.062-.484.584,8.323-9.943a3.671,3.671,0,0,0-5.586-4.764l-5.415,5.566a3.688,3.688,0,0,0-2.853-1.366H22.533a11.839,11.839,0,0,0-4.6-.918,11.353,11.353,0,0,0-10.349,5.868,2.741,2.741,0,0,0-2.454.761L.769,227.88a.917.917,0,0,0,0,1.294Zm6.866-20.849a10.018,10.018,0,0,1,4.04.841.916.916,0,0,0,.368.077H32.767a1.835,1.835,0,1,1,0,3.671H25.279a.918.918,0,1,0,0,1.835h7.488a3.665,3.665,0,0,0,3.639-4.151c5.238-5.385,5.977-6.141,6.009-6.179a1.836,1.836,0,1,1,2.8,2.372l-8.231,9.84a6.39,6.39,0,0,1-4.448,1.789h-12.2a4.563,4.563,0,0,0-3.186,1.287l-.78.753-7.19-7.189a9.475,9.475,0,0,1,8.755-4.945Zm-11.5,6.09a.916.916,0,0,1,1.136-.129c.14.085,7.99,7.954,8.038,8.019a.921.921,0,0,1-.084,1.19l-3.793,3.737-9.017-9.086Zm0,0" transform="translate(0 -192.829)"/><path class="b" d="M129.218,19.455h22.025A2.756,2.756,0,0,0,154,16.7V2.753A2.756,2.756,0,0,0,151.243,0H129.218a2.756,2.756,0,0,0-2.753,2.753V16.7A2.756,2.756,0,0,0,129.218,19.455ZM152.161,7.341H128.3V5.506h23.86Zm-.918,10.279H129.218a.919.919,0,0,1-.918-.918V9.177h23.86V16.7a.919.919,0,0,1-.918.918ZM129.218,1.835h22.025a.919.919,0,0,1,.918.918V3.67H128.3V2.753a.919.919,0,0,1,.918-.918Zm0,0" transform="translate(-114.401 0)"/><path class="b" d="M331,151.957h-3.671a.918.918,0,0,0,0,1.836H331a.918.918,0,1,0,0-1.836Zm0,0" transform="translate(-295.992 -138.008)"/></g></svg>