<svg xmlns="http://www.w3.org/2000/svg" width="120" height="120.016" viewBox="0 0 120 120.016">
  <defs>
    <style>
      .cls-1 {
        fill: #fff;
      }
    </style>
  </defs>
  <path id="dollar" class="cls-1" d="M106.736,100.762l12.023,12.023a4.236,4.236,0,0,1-5.99,5.99l-12.023-12.023-7.29,7.29a3.045,3.045,0,0,1-4.273.3A2.532,2.532,0,0,1,88.487,113L84.176,89.306a3.53,3.53,0,0,1,2.46-3.821,3.06,3.06,0,0,1,1.466-.1L111.8,89.691a2.606,2.606,0,0,1,1.938,3.508,3.627,3.627,0,0,1-.9,1.461Zm2.292-30.854a50.765,50.765,0,1,0-38.821,39.056v.006A4.237,4.237,0,1,1,71.72,117.3a59.236,59.236,0,1,1,45.517-45.273l-.011,0a4.237,4.237,0,1,1-8.2-2.121ZM63.691,88.955H56.806V81.769C47.422,80.493,42.967,73.709,42.359,68l8.371-2.015c.4,4.231,3.24,8.126,9.451,8.126,4.388,0,6.953-2.082,6.953-5.037,0-2.284-1.688-4.03-5.063-4.768l-6.21-1.343c-7.291-1.612-11.814-6.179-11.814-12.626,0-7.119,5.536-12.358,12.759-13.5V29.652h6.886v7.388c7.763,1.41,11.138,6.783,12.083,11.283l-8.3,2.351c-.4-2.351-2.16-6.246-7.7-6.246-4.321,0-6.683,2.485-6.683,5.239,0,2.082,1.485,3.828,4.658,4.5l6.143,1.41c8.505,1.881,12.353,6.918,12.353,12.962,0,6.179-4.455,11.887-12.556,13.164Z"/>
</svg>
