<svg xmlns="http://www.w3.org/2000/svg" xmlns:xlink="http://www.w3.org/1999/xlink" width="481.885" height="383.001" viewBox="0 0 481.885 383.001">
  <defs>
    <style>
      *{
        transform-origin: center; /* or transform-origin: 50% */
        transform-box: fill-box;
      }
      .cls-1 {
        opacity: 0.2;
      }

      .cls-2 {
        opacity: 0;
      }

      .cls-3 {
        fill: #f5f5f5;
      }

      .cls-4 {
        opacity: 0.063;
      }

      .cls-5 {
        fill: #e6e6e6;
      }

      .cls-6 {
        opacity: 0.125;
      }

      .cls-7 {
        fill: #d6d6d6;
      }

      .cls-8 {
        opacity: 0.188;
      }

      .cls-9 {
        fill: #c7c7c7;
      }

      .cls-10 {
        opacity: 0.25;
      }

      .cls-11 {
        fill: #b8b8b8;
      }

      .cls-12 {
        opacity: 0.313;
      }

      .cls-13 {
        fill: #a8a8a8;
      }

      .cls-14 {
        opacity: 0.375;
      }

      .cls-15 {
        fill: #999;
      }

      .cls-16 {
        opacity: 0.438;
      }

      .cls-17 {
        fill: #8a8a8a;
      }

      .cls-18 {
        opacity: 0.5;
      }

      .cls-19 {
        fill: #7b7b7b;
      }

      .cls-20 {
        opacity: 0.563;
      }

      .cls-21 {
        fill: #6b6b6b;
      }

      .cls-22 {
        opacity: 0.625;
      }

      .cls-23 {
        fill: #5c5c5c;
      }

      .cls-24 {
        opacity: 0.688;
      }

      .cls-25 {
        fill: #4d4d4d;
      }

      .cls-26 {
        opacity: 0.75;
      }

      .cls-27 {
        fill: #3d3d3d;
      }

      .cls-28 {
        opacity: 0.813;
      }

      .cls-29 {
        fill: #2e2e2e;
      }

      .cls-30 {
        opacity: 0.875;
      }

      .cls-31 {
        fill: #1f1f1f;
      }

      .cls-32 {
        opacity: 0.938;
      }

      .cls-33 {
        fill: #0f0f0f;
      }

      .cls-34 {
        fill: url(#linear-gradient);
      }

      .cls-35 {
        fill: #fff;
      }

      .cls-36 {
        fill: #feb101;
      }

      .cls-37 {
        fill: url(#linear-gradient-2);
      }

      .cls-38 {
        fill: #515153;
      }

      .cls-39 {
        fill: url(#linear-gradient-3);
      }

      .cls-40 {
        fill: #5e6c75;
      }

      .cls-41 {
        fill: url(#linear-gradient-4);
      }

      .cls-42 {
        fill: #a30d19;
      }

      .cls-43 {
        fill: #fffeff;
      }

      .cls-44 {
        fill: url(#linear-gradient-5);
      }

      .cls-45 {
        fill: #02abbe;
      }

      .cls-46 {
        fill: url(#linear-gradient-6);
      }

      .cls-47 {
        fill: #5f8b8c;
      }

      .cls-48 {
        fill: none;
        stroke: #fff;
        stroke-linecap: round;
        stroke-linejoin: round;
        stroke-width: 2px;
      }
      #ecommmerce_animation_right{
        animation: rotate_r 4s ease-in-out infinite;
        <!-- transform-origin:center center; -->
      }
      #ecommmerce_animation_left{
        animation: rotate_l 4s ease-in-out infinite;
        <!-- transform-origin:center center; -->
      }
      @keyframes rotate_r {
        100% {
        transform:  rotate(360deg) ;
      } 
      }
       @keyframes rotate_l {
        100% {
        transform:  rotate(-360deg) ;
      } 
      }
      <!-- @keyframes rotate_r {
        60% {
          transform:  rotate(360deg) ;
        } 
        65%{
          transform:  rotate(300deg) ;
        }
        70%{
          transform:  rotate(360deg) ;
        }
        75%{
          transform:  rotate(300deg) ;
        }
        100% {
          transform:  rotate(360deg) ;
        } 
      }
       @keyframes rotate_l {
        60% {
          transform:  rotate(-360deg) ;
        } 
        65%{
          transform:  rotate(-300deg) ;
        }
        70%{
          transform:  rotate(-360deg) ;
        }
        75%{
          transform:  rotate(-300deg) ;
        }
        100% {
          transform:  rotate(-360deg) ;
        } 
      } -->
}
    </style>
    <linearGradient id="linear-gradient" x1="1.365" y1="-0.521" x2="0.495" y2="0.506" gradientUnits="objectBoundingBox">
      <stop offset="0.121" stop-color="#c6cfd6"/>
      <stop offset="0.908" stop-color="#f5f6f8"/>
    </linearGradient>
    <linearGradient id="linear-gradient-2" x1="1.375" y1="-0.624" x2="0.603" y2="0.369" xlink:href="#linear-gradient"/>
    <linearGradient id="linear-gradient-3" x1="1.995" y1="-0.989" x2="0.392" y2="0.607" xlink:href="#linear-gradient"/>
    <linearGradient id="linear-gradient-4" x1="1.351" y1="-0.752" x2="0.499" y2="0.504" xlink:href="#linear-gradient"/>
    <linearGradient id="linear-gradient-5" x1="1.268" y1="-0.663" x2="0.49" y2="0.517" xlink:href="#linear-gradient"/>
    <linearGradient id="linear-gradient-6" x1="1.735" y1="-0.684" x2="0.617" y2="0.388" xlink:href="#linear-gradient"/>
  </defs>
  <g id="Element" transform="translate(-30.684 -116.115)">
    <g id="Ecommerce" transform="translate(171.8 267.165)">
      <g id="ecommmerce_animation_right"  >
      <path id="Path_3594" data-name="Path 3594" class="cls-34" d="M415.648,429.056c0-.1,0-.195,0-.294a87.943,87.943,0,0,0-.805-11.848l-9.255-.662a77.307,77.307,0,0,0-1.82-8.348l8.088-4.634a86.54,86.54,0,0,0-4.338-11.3l-9.044,2.095a78.328,78.328,0,0,0-4.276-7.533l6.353-6.8a87.66,87.66,0,0,0-7.454-9.468l-8.024,4.668a78.567,78.567,0,0,0-6.384-5.992l4.066-8.375a87.381,87.381,0,0,0-9.883-6.817l-6.293,6.828a77.835,77.835,0,0,0-7.943-3.874l1.416-9.2a86.441,86.441,0,0,0-11.435-3.554l-4.006,8.387a78,78,0,0,0-8.772-1.322l-1.355-9.194c-1.978-.135-3.974-.209-5.985-.209s-4.007.074-5.986.209l-1.356,9.194a78.071,78.071,0,0,0-8.772,1.322l-4.006-8.387a86.5,86.5,0,0,0-11.434,3.555l1.417,9.2a77.72,77.72,0,0,0-7.944,3.874l-6.293-6.828a87.366,87.366,0,0,0-9.883,6.818l4.066,8.375a78.545,78.545,0,0,0-6.383,5.992l-8.023-4.668a87.6,87.6,0,0,0-7.457,9.468l6.354,6.8a78,78,0,0,0-4.275,7.532l-9.045-2.095a86.537,86.537,0,0,0-4.337,11.3l8.086,4.634a77.472,77.472,0,0,0-1.819,8.348l-9.255.662a87.829,87.829,0,0,0-.805,11.848c0,.1,0,.195,0,.294l9.091,2.044a78.7,78.7,0,0,0,.7,8.381l-8.654,3.363a86.578,86.578,0,0,0,2.8,11.9l9.294-.727a77.861,77.861,0,0,0,3.1,7.693l-7.278,5.766a87.078,87.078,0,0,0,6.23,10.592l8.665-3.434a78.106,78.106,0,0,0,5.143,6.352l-5.258,7.657a87.408,87.408,0,0,0,9.094,8.344l7.261-5.828a78.33,78.33,0,0,0,6.7,4.529l-2.768,8.873a86.6,86.6,0,0,0,11.16,5.337l5.221-7.711a77.459,77.459,0,0,0,7.692,2.345l-.03,9.3a87.012,87.012,0,0,0,12.258,1.823l2.714-8.9q1.99.1,4.007.1t4.007-.1l2.715,8.9a87.022,87.022,0,0,0,12.256-1.823l-.03-9.3a77.3,77.3,0,0,0,7.692-2.345l5.221,7.711a86.556,86.556,0,0,0,11.16-5.337l-2.768-8.873a78.325,78.325,0,0,0,6.7-4.529l7.261,5.828a87.423,87.423,0,0,0,9.093-8.344l-5.257-7.657a78.825,78.825,0,0,0,5.143-6.352l8.665,3.434a87.252,87.252,0,0,0,6.23-10.592l-7.278-5.766a77.378,77.378,0,0,0,3.1-7.693l9.294.727a86.525,86.525,0,0,0,2.8-11.9l-8.655-3.363a78.436,78.436,0,0,0,.7-8.38ZM328.5,493.231a64.6,64.6,0,1,1,64.6-64.6A64.6,64.6,0,0,1,328.5,493.231Z" transform="translate(-241.352 -341.612)"/>
      <g id="Group_498" data-name="Group 498" transform="translate(0 0)">
        <path id="Path_3595" data-name="Path 3595" class="cls-35" d="M251.568,487.8l-8.516,3.31c.06.367.133.729.2,1.1l8.457-3.287C251.656,488.544,251.613,488.169,251.568,487.8Z" transform="translate(-241.913 -389.875)"/>
        <path id="Path_3596" data-name="Path 3596" class="cls-35" d="M281.746,550.663l-4.807,7c.155.164.318.321.474.483l4.785-6.968C282.044,551.009,281.9,550.834,281.746,550.663Z" transform="translate(-253.101 -410.63)"/>
        <path id="Path_3597" data-name="Path 3597" class="cls-35" d="M261.763,521.366l-6.889,5.458c.139.28.289.553.431.831l6.847-5.424C262.019,521.944,261.893,521.654,261.763,521.366Z" transform="translate(-245.816 -400.957)"/>
        <path id="Path_3598" data-name="Path 3598" class="cls-35" d="M446.381,383.75a78.557,78.557,0,0,1,6.384,5.992l8.024-4.668a87.594,87.594,0,0,1,6.983,8.8l.472-.505a87.659,87.659,0,0,0-7.454-9.468l-8.024,4.668a78.369,78.369,0,0,0-5.984-5.646Z" transform="translate(-309.042 -355.251)"/>
        <path id="Path_3599" data-name="Path 3599" class="cls-35" d="M469.973,409.723l-.438.47a78.338,78.338,0,0,1,4.276,7.533l9.044-2.095a86.632,86.632,0,0,1,4.017,10.309l.321-.184a86.536,86.536,0,0,0-4.338-11.3l-9.044,2.095A78.272,78.272,0,0,0,469.973,409.723Z" transform="translate(-316.686 -364.099)"/>
        <path id="Path_3600" data-name="Path 3600" class="cls-35" d="M416.445,363.853a77.844,77.844,0,0,1,7.943,3.874l6.293-6.828a87.2,87.2,0,0,1,9.468,6.5l.415-.853a87.379,87.379,0,0,0-9.883-6.817l-6.293,6.828a77.684,77.684,0,0,0-7.774-3.8Z" transform="translate(-299.159 -347.593)"/>
        <path id="Path_3601" data-name="Path 3601" class="cls-35" d="M404.208,472.4a64.593,64.593,0,0,1-129.18,0c0,.2-.007.39-.007.586a64.6,64.6,0,1,0,129.2,0C404.215,472.788,404.209,472.594,404.208,472.4Z" transform="translate(-252.467 -384.791)"/>
        <path id="Path_3602" data-name="Path 3602" class="cls-35" d="M309.691,573.1l-2.462,7.891c.1.059.209.113.313.171L310,573.287C309.894,573.225,309.794,573.159,309.691,573.1Z" transform="translate(-263.101 -418.036)"/>
        <path id="Path_3603" data-name="Path 3603" class="cls-35" d="M343.149,586.58l-.026,8.127h0l.027-8.127Z" transform="translate(-274.951 -422.488)"/>
        <path id="Path_3604" data-name="Path 3604" class="cls-35" d="M484.089,442.1l-.267.153a77.3,77.3,0,0,1,1.82,8.348l9.255.662a88.176,88.176,0,0,1,.79,10.973l.013,0c0-.1,0-.195,0-.294a87.953,87.953,0,0,0-.805-11.848l-9.255-.662C485.242,446.941,484.719,444.5,484.089,442.1Z" transform="translate(-321.403 -374.787)"/>
        <path id="Path_3605" data-name="Path 3605" class="cls-35" d="M431.547,573.287,434,581.159c.1-.058.209-.112.313-.171l-2.462-7.891C431.751,573.159,431.65,573.225,431.547,573.287Z" transform="translate(-304.145 -418.036)"/>
        <path id="Path_3606" data-name="Path 3606" class="cls-35" d="M458.121,551.178l4.784,6.968c.155-.162.318-.319.473-.483l-4.806-7C458.421,550.834,458.274,551.009,458.121,551.178Z" transform="translate(-312.918 -410.63)"/>
        <path id="Path_3607" data-name="Path 3607" class="cls-35" d="M477.17,522.23l6.847,5.424c.141-.278.292-.551.431-.831l-6.889-5.458C477.429,521.654,477.3,521.944,477.17,522.23Z" transform="translate(-319.207 -400.957)"/>
        <path id="Path_3608" data-name="Path 3608" class="cls-35" d="M335.784,345.122l4.006,8.387a78.08,78.08,0,0,1,8.772-1.322l1.356-9.194c1.979-.135,3.973-.209,5.986-.209s4.007.074,5.985.209l1.355,9.194a78.009,78.009,0,0,1,8.772,1.322l4.006-8.387a86.488,86.488,0,0,1,11.264,3.491l.171-1.109a86.442,86.442,0,0,0-11.435-3.554l-4.006,8.387a78,78,0,0,0-8.772-1.322l-1.355-9.194c-1.978-.135-3.974-.209-5.985-.209s-4.007.074-5.986.209l-1.356,9.194a78.073,78.073,0,0,0-8.772,1.322l-4.006-8.387A86.5,86.5,0,0,0,324.35,347.5l.171,1.109A86.5,86.5,0,0,1,335.784,345.122Z" transform="translate(-268.754 -341.612)"/>
        <path id="Path_3609" data-name="Path 3609" class="cls-35" d="M486.937,488.916l8.457,3.287c.064-.366.139-.728.2-1.1l-8.516-3.31C487.03,488.169,486.989,488.544,486.937,488.916Z" transform="translate(-322.431 -389.875)"/>
        <path id="Path_3610" data-name="Path 3610" class="cls-35" d="M399.742,586.581l.026,8.127h0l-.026-8.127Z" transform="translate(-293.644 -422.488)"/>
        <path id="Path_3611" data-name="Path 3611" class="cls-35" d="M271.345,385.074l8.023,4.668a78.555,78.555,0,0,1,6.383-5.992l-.4-.826a78.47,78.47,0,0,0-5.982,5.646l-8.023-4.668a87.6,87.6,0,0,0-7.457,9.468l.472.506A87.449,87.449,0,0,1,271.345,385.074Z" transform="translate(-248.792 -355.251)"/>
        <path id="Path_3612" data-name="Path 3612" class="cls-35" d="M300.34,360.9l6.293,6.828a77.728,77.728,0,0,1,7.944-3.874l-.169-1.1a77.7,77.7,0,0,0-7.775,3.8l-6.293-6.828a87.357,87.357,0,0,0-9.883,6.818l.415.853A87.329,87.329,0,0,1,300.34,360.9Z" transform="translate(-257.564 -347.592)"/>
        <path id="Path_3613" data-name="Path 3613" class="cls-35" d="M251.351,415.632l9.045,2.095a78,78,0,0,1,4.275-7.532l-.439-.47a78.205,78.205,0,0,0-3.836,6.829l-9.045-2.095a86.535,86.535,0,0,0-4.337,11.3l.321.184A86.522,86.522,0,0,1,251.351,415.632Z" transform="translate(-243.221 -364.099)"/>
        <path id="Path_3614" data-name="Path 3614" class="cls-35" d="M241.367,462.234a87.9,87.9,0,0,1,.79-10.973l9.255-.662a77.467,77.467,0,0,1,1.819-8.348l-.267-.153c-.629,2.4-1.153,4.843-1.552,7.329l-9.255.662a87.829,87.829,0,0,0-.805,11.848c0,.1,0,.195,0,.294Z" transform="translate(-241.352 -374.787)"/>
      </g>
      <path id="Path_3615" data-name="Path 3615" class="cls-36" d="M346.944,496.745a49.732,49.732,0,1,1,49.733-49.733A49.732,49.732,0,0,1,346.944,496.745Z" transform="translate(-259.794 -359.991)"/>
    </g>
      <g id="Group_500" data-name="Group 500" transform="translate(64.141 68.978)">
        <g id="Group_499" data-name="Group 499">
          <path id="Path_3616" data-name="Path 3616" class="cls-35" d="M369.6,484.071l.381-4.665h-10.56l.382,4.665Z" transform="translate(-344.472 -456.082)"/>
          <path id="Path_3617" data-name="Path 3617" class="cls-35" d="M377.586,473.35H387.2l2.016-7.871H378.222Z" transform="translate(-350.47 -451.484)"/>
          <path id="Path_3618" data-name="Path 3618" class="cls-35" d="M343.243,479.405l1.212,4.665h8.513l-.379-4.665Z" transform="translate(-339.132 -456.082)"/>
          <path id="Path_3619" data-name="Path 3619" class="cls-35" d="M386.561,479.405h-9.343l-.381,4.665h8.513Z" transform="translate(-350.223 -456.082)"/>
          <path id="Path_3620" data-name="Path 3620" class="cls-35" d="M394.8,444.587a2.17,2.17,0,0,0-1.212.385,2.5,2.5,0,0,0-.551.434c-2.01,2.014-4.022,4.041-6.033,6.053a1.868,1.868,0,0,0-.482.707h-7.39l-.415,4.958h11.26l.85-3.148c1.6-1.606,3.211-3.267,4.816-4.724H399.5c2.917,0,2.917-4.665,0-4.665Z" transform="translate(-350.844 -444.587)"/>
          <path id="Path_3621" data-name="Path 3621" class="cls-35" d="M357.9,460.859h12.321l.413-4.957H357.483Z" transform="translate(-343.834 -448.323)"/>
          <path id="Path_3622" data-name="Path 3622" class="cls-35" d="M351.281,473.35l-.635-7.871H339.654l2.014,7.871Z" transform="translate(-337.947 -451.484)"/>
          <path id="Path_3623" data-name="Path 3623" class="cls-35" d="M337.106,455.9l1.316,4.957h11.261l-.415-4.957Z" transform="translate(-337.106 -448.323)"/>
          <path id="Path_3624" data-name="Path 3624" class="cls-35" d="M370.36,465.479H358.287l.635,7.871h10.805Z" transform="translate(-344.099 -451.484)"/>
          <path id="Path_3625" data-name="Path 3625" class="cls-35" d="M349.831,488.337a3.925,3.925,0,1,1-3.924,3.926,3.925,3.925,0,0,1,3.924-3.926" transform="translate(-340.012 -459.031)"/>
          <path id="Path_3626" data-name="Path 3626" class="cls-35" d="M380.9,488.337a3.925,3.925,0,1,1-3.925,3.926,3.926,3.926,0,0,1,3.925-3.926" transform="translate(-350.268 -459.031)"/>
        </g>
      </g>
    </g>
    <g id="seo" transform="translate(43.573 299.717)">
      <g id="ecommmerce_animation_right">
      <path id="Path_3627" data-name="Path 3627" class="cls-37" d="M131.575,436.7V425.931l-8.038-1.2a33.268,33.268,0,0,0-3.633-9.61l5.3-6-6.926-8.253-7,4.282a33.392,33.392,0,0,0-8.9-4.962l.208-8.107-10.611-1.87-2.659,7.933a33.388,33.388,0,0,0-9.836,1.911l-5.169-6.492-9.33,5.388,3.132,7.963a33.7,33.7,0,0,0-6.2,7.646l-8.305-1.684-3.686,10.122,7.632,4.15a33.243,33.243,0,0,0,.116,9.745l-7.512,4.085L53.845,451.1l8.514-1.728a33.667,33.667,0,0,0,6.336,7.434l-3.113,7.916,9.33,5.386,5.333-6.7A33.413,33.413,0,0,0,90,465.081L92.659,473l10.61-1.871-.214-8.369a33.475,33.475,0,0,0,8.713-5.079l6.953,4.254,6.925-8.253-5.426-6.141a33.257,33.257,0,0,0,3.43-9.645Zm-40.825,19.4A24.505,24.505,0,1,1,115.256,431.6,24.506,24.506,0,0,1,90.75,456.108Z" transform="translate(-49.925 -390.208)"/>
      <g id="Group_501" data-name="Group 501" transform="translate(0 0)">
        <path id="Path_3628" data-name="Path 3628" class="cls-35" d="M57.636,460.022l-7.36,4,.356.979,7.156-3.891C57.731,460.75,57.683,460.386,57.636,460.022Z" transform="translate(-50.041 -413.257)"/>
        <path id="Path_3629" data-name="Path 3629" class="cls-35" d="M123.3,453.465c0-.2-.011-.391-.015-.586a24.5,24.5,0,0,1-48.982,0c0,.2-.015.39-.015.586a24.506,24.506,0,1,0,49.011,0Z" transform="translate(-57.968 -410.899)"/>
        <path id="Path_3630" data-name="Path 3630" class="cls-35" d="M60.876,450.9a34.149,34.149,0,0,1,.293-3.836l-.129-.071a33.067,33.067,0,0,0-.174,3.356C60.865,450.534,60.873,450.718,60.876,450.9Z" transform="translate(-53.537 -408.956)"/>
        <path id="Path_3631" data-name="Path 3631" class="cls-35" d="M128.24,406.28a33.394,33.394,0,0,1,8.9,4.962l7-4.282,6.421,7.652.505-.571-6.926-8.253-7,4.282a33.414,33.414,0,0,0-8.868-4.951Z" transform="translate(-75.781 -395.131)"/>
        <path id="Path_3632" data-name="Path 3632" class="cls-35" d="M76.076,490.9,73.3,497.965l.376.218,2.737-6.962C76.3,491.119,76.19,491.007,76.076,490.9Z" transform="translate(-57.642 -423.452)"/>
        <path id="Path_3633" data-name="Path 3633" class="cls-35" d="M129.24,500.258l.185,7.2.029-.005-.185-7.21Z" transform="translate(-76.111 -426.537)"/>
        <path id="Path_3634" data-name="Path 3634" class="cls-35" d="M158.028,437.36a33.216,33.216,0,0,0-3.239-8.884l-.394.445a33.27,33.27,0,0,1,3.633,9.61l8.038,1.205v-1.172Z" transform="translate(-84.416 -402.842)"/>
        <path id="Path_3635" data-name="Path 3635" class="cls-35" d="M154.865,477.181l4.922,5.57.5-.6-5.044-5.708C155.122,476.688,155,476.937,154.865,477.181Z" transform="translate(-84.571 -418.678)"/>
        <path id="Path_3636" data-name="Path 3636" class="cls-35" d="M81.74,394.732l5.169,6.492a33.389,33.389,0,0,1,9.836-1.911L99.4,391.38l10.582,1.865.029-1.168L99.4,390.208l-2.659,7.933a33.388,33.388,0,0,0-9.836,1.911L81.74,393.56l-9.33,5.388.376.955Z" transform="translate(-57.348 -390.208)"/>
        <path id="Path_3637" data-name="Path 3637" class="cls-35" d="M53.611,422.438l8.305,1.684a33.7,33.7,0,0,1,6.2-7.646l-.332-.845a33.712,33.712,0,0,0-5.87,7.318l-8.305-1.684-3.686,10.122.356.194Z" transform="translate(-49.925 -398.602)"/>
      </g>
    </g>
      <path id="Path_3638" data-name="Path 3638" class="cls-38" d="M101.818,461.319a18.368,18.368,0,1,1,18.368-18.369A18.368,18.368,0,0,1,101.818,461.319Z" transform="translate(-60.993 -401.557)"/>
      <path id="Path_3639" data-name="Path 3639" class="cls-35" d="M100.146,457.866l.5.378a1.764,1.764,0,0,0,2.47-.348l4.757-6.32a1.774,1.774,0,0,0,.25-.464,7.16,7.16,0,0,0,5.408-.313,6.89,6.89,0,1,0-9.352-3.186,6.621,6.621,0,0,0,.687,1.138,1.728,1.728,0,0,0-.317.324L99.8,455.4A1.765,1.765,0,0,0,100.146,457.866Zm8.433-17.52a4.683,4.683,0,1,1-2.4,6.319A4.783,4.783,0,0,1,108.579,440.346Z" transform="translate(-66.273 -405.872)"/>
    </g>
    <g id="money" transform="translate(326.219 225.855)">
      <g id="ecommmerce_animation_right">
      <path id="Path_3640" data-name="Path 3640" class="cls-39" d="M554.169,314.962,551.228,304.6l-8.06,1.034a33.291,33.291,0,0,0-6.119-8.254l3.462-7.216-8.915-6.049-5.561,6.029a33.42,33.42,0,0,0-9.916-2.344l-2.014-7.855-10.719,1.1-.391,8.358a33.35,33.35,0,0,0-8.941,4.523l-6.744-4.834-7.506,7.729,5.187,6.806a33.591,33.591,0,0,0-3.879,9.048l-8.452.647-.781,10.745,8.474,1.907a33.223,33.223,0,0,0,2.773,9.344l-6.112,5.979,6.309,8.735,7.719-3.985a33.675,33.675,0,0,0,8.125,5.419l-.833,8.465,10.447,2.637,3.3-7.9a33.423,33.423,0,0,0,9.846-1.056l4.712,6.89,9.7-4.7-2.491-7.994a33.44,33.44,0,0,0,7-7.265l7.851,2.2,4.408-9.83-6.9-4.426a33.279,33.279,0,0,0,.665-10.214Zm-33.977,29.81a24.5,24.5,0,1,1,16.885-30.265A24.5,24.5,0,0,1,520.192,344.772Z" transform="translate(-471.879 -279.942)"/>
      <g id="Group_502" data-name="Group 502" transform="translate(0 0)">
        <path id="Path_3641" data-name="Path 3641" class="cls-35" d="M485.294,363.132l-5.751,5.626.5.687,5.617-5.494C485.53,363.682,485.414,363.407,485.294,363.132Z" transform="translate(-474.409 -307.407)"/>
        <path id="Path_3642" data-name="Path 3642" class="cls-35" d="M512.092,388.381l-.723,7.347.113.029.721-7.321Z" transform="translate(-484.917 -315.743)"/>
        <path id="Path_3643" data-name="Path 3643" class="cls-35" d="M583.951,341.251c.013-.8,0-1.593-.044-2.394l-.079.036C583.9,339.681,583.937,340.467,583.951,341.251Z" transform="translate(-508.839 -299.393)"/>
        <path id="Path_3644" data-name="Path 3644" class="cls-35" d="M569.168,307.333a33.292,33.292,0,0,1,6.119,8.254l8.06-1.034,2.646,9.326.3-.133-2.941-10.365-8.06,1.034a33.229,33.229,0,0,0-5.743-7.867Z" transform="translate(-503.999 -288.726)"/>
        <path id="Path_3645" data-name="Path 3645" class="cls-35" d="M564.385,382.894l2.174,6.975.317-.153-2.2-7.054C564.579,382.738,564.484,382.819,564.385,382.894Z" transform="translate(-502.42 -313.855)"/>
        <path id="Path_3646" data-name="Path 3646" class="cls-35" d="M472.66,326.487l8.452-.647a33.591,33.591,0,0,1,3.879-9.048l-.391-.512a33.588,33.588,0,0,0-3.489,8.388l-8.452.647-.781,10.745.084.019Z" transform="translate(-471.879 -291.939)"/>
        <path id="Path_3647" data-name="Path 3647" class="cls-35" d="M582.836,353.648l6.488,4.164.409-.91-6.685-4.29C582.981,352.958,582.913,353.3,582.836,353.648Z" transform="translate(-508.511 -303.934)"/>
        <path id="Path_3648" data-name="Path 3648" class="cls-35" d="M546.441,342.4a24.512,24.512,0,0,1-49.008.013,24.511,24.511,0,1,0,49.008-.013Z" transform="translate(-480.313 -300.561)"/>
        <path id="Path_3649" data-name="Path 3649" class="cls-35" d="M491.215,290.26l6.744,4.834a33.352,33.352,0,0,1,8.941-4.523l.391-8.358,10.719-1.1,2.014,7.855a33.421,33.421,0,0,1,9.916,2.344l5.561-6.029,8.49,5.762.425-.885-8.915-6.049-5.561,6.029a33.42,33.42,0,0,0-9.916-2.344l-2.014-7.855-10.719,1.1L506.9,289.4a33.35,33.35,0,0,0-8.941,4.523l-6.744-4.834-7.506,7.729.5.656Z" transform="translate(-475.785 -279.942)"/>
      </g>
    </g>
      <path id="Path_3650" data-name="Path 3650" class="cls-40" d="M526.141,316.646a16.573,16.573,0,1,0,16.574,16.574A16.574,16.574,0,0,0,526.141,316.646Z" transform="translate(-484.322 -292.06)"/>
      <g id="Group_503" data-name="Group 503" transform="translate(35.047 30.326)">
        <path id="Path_3651" data-name="Path 3651" class="cls-35" d="M529.467,347.355a10.119,10.119,0,0,1-2.933-.855,8.313,8.313,0,0,1-2.334-1.592l1.016-1.513a1.051,1.051,0,0,1,.355-.328.9.9,0,0,1,.461-.127,1.214,1.214,0,0,1,.628.206q.335.209.763.488a10.146,10.146,0,0,0,.975.561,4.587,4.587,0,0,0,1.3.415l.508-5.989q-.949-.268-1.879-.631a6.3,6.3,0,0,1-1.671-.959,4.449,4.449,0,0,1-1.2-1.509,5.5,5.5,0,0,1-.046-4.273,5.3,5.3,0,0,1,1.183-1.738,6.243,6.243,0,0,1,1.912-1.261,6.459,6.459,0,0,1,2.607-.5l.147-1.7a.94.94,0,0,1,.268-.581.818.818,0,0,1,.628-.257h1.217l-.228,2.629a7.383,7.383,0,0,1,2.447.8,8.832,8.832,0,0,1,1.791,1.3l-.8,1.216a1.674,1.674,0,0,1-.374.4.768.768,0,0,1-.455.133,1.154,1.154,0,0,1-.475-.128c-.182-.084-.393-.186-.628-.307s-.5-.242-.782-.367a5.31,5.31,0,0,0-.949-.307l-.468,5.538q.963.294,1.9.648a6.919,6.919,0,0,1,1.7.916,4.4,4.4,0,0,1,1.222,1.4,4.232,4.232,0,0,1,.469,2.092,6.518,6.518,0,0,1-.415,2.333,5.7,5.7,0,0,1-1.21,1.926,6.145,6.145,0,0,1-1.959,1.357,7.826,7.826,0,0,1-2.659.628l-.161,1.966a.952.952,0,0,1-.268.568.815.815,0,0,1-.628.261h-1.217Zm-1.35-14.416a2.092,2.092,0,0,0,.662,1.585,3.517,3.517,0,0,0,.742.535,6.789,6.789,0,0,0,.937.421l.414-4.95a4.773,4.773,0,0,0-1.257.316,2.788,2.788,0,0,0-.856.541,2.021,2.021,0,0,0-.488.717A2.294,2.294,0,0,0,528.117,332.939Zm6.5,8.748a2.054,2.054,0,0,0-.182-.89,2.116,2.116,0,0,0-.507-.675,3.309,3.309,0,0,0-.769-.508,7.95,7.95,0,0,0-.963-.388l-.454,5.428a3.48,3.48,0,0,0,2.146-.955A2.808,2.808,0,0,0,534.616,341.686Z" transform="translate(-524.2 -325.214)"/>
      </g>
    </g>
    <g id="design" transform="translate(218.29 125.045)">
      <g id="ecommmerce_animation_left">
      <path id="Path_3652" data-name="Path 3652" class="cls-41" d="M448.7,212.5a69.811,69.811,0,0,0,1.216-10.2l-11.8-3.72a58.282,58.282,0,0,0-.782-9.024l10.877-6.155a69.221,69.221,0,0,0-2.979-9.641l-12.289,1.4a57.464,57.464,0,0,0-4.589-8.215l7.413-10.018a70.007,70.007,0,0,0-6.573-7.461l-10.66,6.279a57.958,57.958,0,0,0-7.764-5.771l2.7-12.156a69.247,69.247,0,0,0-8.954-4.056l-7.2,10.089a57.332,57.332,0,0,0-9.608-2.072l-2.474-12.157c-1.618-.113-3.252-.174-4.9-.174s-3.282.062-4.9.174l-2.474,12.157a57.383,57.383,0,0,0-9.608,2.072l-7.2-10.089a69.374,69.374,0,0,0-8.955,4.056l2.7,12.156a58,58,0,0,0-7.764,5.771l-10.66-6.279a70,70,0,0,0-6.572,7.461l7.412,10.018a57.6,57.6,0,0,0-4.589,8.215l-12.289-1.4a69.235,69.235,0,0,0-2.978,9.641l10.878,6.155a58.116,58.116,0,0,0-.783,9.024l-11.8,3.72a69.8,69.8,0,0,0,1.216,10.2l12.434,1.2a57.4,57.4,0,0,0,2.827,8.236l-9.27,8.2a69.658,69.658,0,0,0,5.345,8.968l11.851-3.965a57.983,57.983,0,0,0,5.692,6.156l-5.143,11.286a69.844,69.844,0,0,0,8.6,6.147l9.2-8.431a57.234,57.234,0,0,0,7.5,3.28L360.9,266a69.279,69.279,0,0,0,10.415,2.17l4.969-11.428c1.338.092,2.689.144,4.051.144s2.712-.052,4.051-.144l4.969,11.428A69.239,69.239,0,0,0,399.769,266l-.109-12.429a57.329,57.329,0,0,0,7.5-3.28l9.2,8.43a69.8,69.8,0,0,0,8.6-6.146l-5.143-11.286a58.047,58.047,0,0,0,5.692-6.156L437.36,239.1a69.562,69.562,0,0,0,5.343-8.968l-9.269-8.2a57.237,57.237,0,0,0,2.829-8.236Zm-68.362,32.8a46.49,46.49,0,1,1,46.49-46.49A46.49,46.49,0,0,1,380.334,245.3Z" transform="translate(-310.755 -129.446)"/>
      <g id="Group_504" data-name="Group 504">
        <path id="Path_3653" data-name="Path 3653" class="cls-35" d="M352.779,297.633l-4.773,10.473c.128.107.262.208.391.314l4.753-10.428C353.023,297.875,352.9,297.752,352.779,297.633Z" transform="translate(-323.053 -184.973)"/>
        <path id="Path_3654" data-name="Path 3654" class="cls-35" d="M460.066,161.011a57.95,57.95,0,0,1,7.764,5.771l10.66-6.279a69.912,69.912,0,0,1,6.125,6.894l.448-.606a70,70,0,0,0-6.573-7.461l-10.66,6.279a57.933,57.933,0,0,0-7.536-5.623Z" transform="translate(-360.05 -139.313)"/>
        <path id="Path_3655" data-name="Path 3655" class="cls-35" d="M330.434,267.98l-8.919,7.891c.135.27.281.534.419.8l8.851-7.831C330.663,268.557,330.552,268.267,330.434,267.98Z" transform="translate(-314.307 -175.183)"/>
        <path id="Path_3656" data-name="Path 3656" class="cls-35" d="M385.712,316.5l-.1,11.262.01,0,.1-11.26Z" transform="translate(-335.47 -191.201)"/>
        <path id="Path_3657" data-name="Path 3657" class="cls-35" d="M500.5,228.737a58.439,58.439,0,0,0-.624-7.941l-.158.09a58.282,58.282,0,0,1,.782,9.024l11.722,3.7c.024-.382.056-.764.073-1.149Z" transform="translate(-373.142 -159.605)"/>
        <path id="Path_3658" data-name="Path 3658" class="cls-35" d="M486.719,186.363l-.4.545a57.464,57.464,0,0,1,4.589,8.215l12.289-1.4a69.421,69.421,0,0,1,2.722,8.614l.257-.145a69.237,69.237,0,0,0-2.979-9.641l-12.289,1.4A57.439,57.439,0,0,0,486.719,186.363Z" transform="translate(-368.716 -148.237)"/>
        <path id="Path_3659" data-name="Path 3659" class="cls-35" d="M438.189,233.873a46.479,46.479,0,0,1-92.951,0c0,.2-.015.39-.015.586a46.49,46.49,0,0,0,92.981,0C438.2,234.263,438.192,234.069,438.189,233.873Z" transform="translate(-322.135 -163.922)"/>
        <path id="Path_3660" data-name="Path 3660" class="cls-35" d="M493.9,268.842l8.851,7.831c.138-.268.284-.532.419-.8l-8.917-7.89C494.132,268.268,494.021,268.558,493.9,268.842Z" transform="translate(-371.219 -175.183)"/>
        <path id="Path_3661" data-name="Path 3661" class="cls-35" d="M374.118,134.933l7.2,10.089a57.385,57.385,0,0,1,9.608-2.072l2.474-12.157c1.618-.113,3.253-.174,4.9-.174s3.281.062,4.9.174l2.474,12.157a57.335,57.335,0,0,1,9.608,2.072l7.2-10.089a69.2,69.2,0,0,1,8.721,3.935l.233-1.052a69.246,69.246,0,0,0-8.954-4.056l-7.2,10.089a57.334,57.334,0,0,0-9.608-2.072L403.2,129.62c-1.618-.113-3.252-.174-4.9-.174s-3.282.062-4.9.174l-2.474,12.157a57.383,57.383,0,0,0-9.608,2.072l-7.2-10.089a69.377,69.377,0,0,0-8.955,4.056l.233,1.052A69.26,69.26,0,0,1,374.118,134.933Z" transform="translate(-328.718 -129.446)"/>
        <path id="Path_3662" data-name="Path 3662" class="cls-35" d="M443.478,316.5l.1,11.26.011,0-.1-11.261Z" transform="translate(-354.573 -191.201)"/>
        <path id="Path_3663" data-name="Path 3663" class="cls-35" d="M473.57,297.992l4.752,10.428c.129-.106.263-.207.391-.314l-4.773-10.473C473.816,297.752,473.7,297.875,473.57,297.992Z" transform="translate(-364.508 -184.973)"/>
        <path id="Path_3664" data-name="Path 3664" class="cls-35" d="M322.551,229.909a58.117,58.117,0,0,1,.783-9.024l-.159-.09a58.1,58.1,0,0,0-.624,7.941l-11.8,3.72c.017.385.05.766.074,1.149Z" transform="translate(-310.755 -159.605)"/>
        <path id="Path_3665" data-name="Path 3665" class="cls-35" d="M316.273,193.722l12.289,1.4a57.592,57.592,0,0,1,4.588-8.215l-.4-.545a57.517,57.517,0,0,0-4.186,7.587l-12.289-1.4a69.227,69.227,0,0,0-2.978,9.641l.257.145A69.424,69.424,0,0,1,316.273,193.722Z" transform="translate(-311.594 -148.237)"/>
        <path id="Path_3666" data-name="Path 3666" class="cls-35" d="M338.444,160.5l10.66,6.279a58,58,0,0,1,7.764-5.771l-.227-1.024a57.933,57.933,0,0,0-7.536,5.623l-10.66-6.279a69.989,69.989,0,0,0-6.572,7.461l.447.606A70.087,70.087,0,0,1,338.444,160.5Z" transform="translate(-317.727 -139.313)"/>
      </g>
      <path id="Path_3667" data-name="Path 3667" class="cls-42" d="M396.468,252.557a36.843,36.843,0,1,1,36.844-36.844A36.844,36.844,0,0,1,396.468,252.557Z" transform="translate(-326.889 -145.764)"/>
    </g>
      <g id="idea" transform="translate(45.398 45.961)">
        <g id="Group_506" data-name="Group 506" transform="translate(22.345 13.885)">
          <g id="Group_505" data-name="Group 505">
            <path id="Path_3668" data-name="Path 3668" class="cls-43" d="M420.449,228a.647.647,0,0,1-.648-.648,7.274,7.274,0,0,0-7.268-7.264.648.648,0,0,1,0-1.3,8.572,8.572,0,0,1,8.565,8.56A.649.649,0,0,1,420.449,228Z" transform="translate(-411.886 -218.789)"/>
          </g>
        </g>
        <g id="Group_511" data-name="Group 511" transform="translate(18.591 27.546)">
          <g id="Group_509" data-name="Group 509">
            <g id="Group_507" data-name="Group 507" transform="translate(5.893)">
              <path id="Path_3669" data-name="Path 3669" class="cls-43" d="M416.059,251.034l-.98-.162,1.932-11.689.98.161-1.932,11.69Z" transform="translate(-415.079 -239.183)"/>
            </g>
            <g id="Group_508" data-name="Group 508">
              <path id="Path_3670" data-name="Path 3670" class="cls-43" d="M408.213,251.034l-1.931-11.69.979-.161,1.932,11.689-.98.162Z" transform="translate(-406.282 -239.183)"/>
            </g>
          </g>
          <g id="Group_510" data-name="Group 510" transform="translate(0.741 0.062)">
            <path id="Path_3671" data-name="Path 3671" class="cls-43" d="M414.9,240.859c-.407,0-.584-.4-.712-.685-.054-.12-.165-.37-.229-.37s-.173.25-.226.37c-.128.289-.306.685-.71.685s-.582-.4-.711-.685c-.054-.12-.163-.37-.226-.37s-.175.25-.227.37c-.13.289-.307.685-.713.685s-.579-.4-.711-.685c-.053-.12-.163-.37-.225-.37s-.175.25-.23.37c-.127.289-.3.685-.711.685s-.581-.4-.709-.685c-.055-.12-.167-.37-.23-.37s-.176.25-.228.37c-.129.289-.3.685-.711.685v-.529c.062,0,.175-.251.226-.37.131-.291.307-.685.713-.685s.583.395.711.685c.056.119.165.37.228.37s.176-.251.23-.37c.127-.289.3-.685.711-.685s.581.4.71.685c.052.119.165.37.226.37s.176-.251.23-.37c.128-.289.3-.685.71-.685s.581.4.707.685c.056.119.167.37.23.37s.174-.251.228-.37c.127-.291.3-.685.709-.685s.582.4.711.685c.055.119.165.37.23.37v.529Z" transform="translate(-407.388 -239.275)"/>
          </g>
        </g>
        <g id="Group_512" data-name="Group 512" transform="translate(22.34)">
          <path id="Path_3672" data-name="Path 3672" class="cls-43" d="M412.527,206.161a.649.649,0,0,1-.649-.648v-6.8a.649.649,0,1,1,1.3,0v6.8A.648.648,0,0,1,412.527,206.161Z" transform="translate(-411.878 -198.06)"/>
        </g>
        <g id="Group_513" data-name="Group 513" transform="translate(30.111 2.99)">
          <path id="Path_3673" data-name="Path 3673" class="cls-43" d="M424.129,209.713a.632.632,0,0,1-.323-.087.645.645,0,0,1-.237-.885l3.4-5.893a.648.648,0,1,1,1.121.649l-3.4,5.892A.652.652,0,0,1,424.129,209.713Z" transform="translate(-423.48 -202.524)"/>
        </g>
        <g id="Group_514" data-name="Group 514" transform="translate(35.803 11.169)">
          <path id="Path_3674" data-name="Path 3674" class="cls-43" d="M432.625,219.431a.647.647,0,0,1-.323-1.209l5.891-3.4a.649.649,0,0,1,.649,1.125l-5.891,3.4A.635.635,0,0,1,432.625,219.431Z" transform="translate(-431.977 -214.733)"/>
        </g>
        <g id="Group_515" data-name="Group 515" transform="translate(37.887 22.341)">
          <path id="Path_3675" data-name="Path 3675" class="cls-43" d="M442.758,232.71h-7.02a.649.649,0,1,1,0-1.3h7.02a.649.649,0,0,1,0,1.3Z" transform="translate(-435.089 -231.412)"/>
        </g>
        <g id="Group_516" data-name="Group 516" transform="translate(35.807 30.113)">
          <path id="Path_3676" data-name="Path 3676" class="cls-43" d="M438.525,247.714a.647.647,0,0,1-.324-.088l-5.893-3.4a.649.649,0,0,1,.648-1.125l5.895,3.4a.649.649,0,0,1-.326,1.211Z" transform="translate(-431.983 -243.015)"/>
        </g>
        <g id="Group_517" data-name="Group 517" transform="translate(11.168 2.996)">
          <path id="Path_3677" data-name="Path 3677" class="cls-43" d="M399.249,209.722a.649.649,0,0,1-.561-.325l-3.4-5.891a.65.65,0,0,1,1.125-.649l3.4,5.892a.648.648,0,0,1-.561.973Z" transform="translate(-395.2 -202.532)"/>
        </g>
        <g id="Group_518" data-name="Group 518" transform="translate(2.99 11.178)">
          <path id="Path_3678" data-name="Path 3678" class="cls-43" d="M389.533,219.445a.635.635,0,0,1-.325-.087l-5.893-3.4a.648.648,0,1,1,.65-1.122l5.894,3.4a.648.648,0,0,1-.326,1.209Z" transform="translate(-382.992 -214.748)"/>
        </g>
        <g id="Group_519" data-name="Group 519" transform="translate(0 22.352)">
          <path id="Path_3679" data-name="Path 3679" class="cls-43" d="M385.977,232.725h-6.8a.648.648,0,1,1,0-1.3h6.8a.648.648,0,1,1,0,1.3Z" transform="translate(-378.528 -231.429)"/>
        </g>
        <g id="Group_520" data-name="Group 520" transform="translate(2.994 30.122)">
          <path id="Path_3680" data-name="Path 3680" class="cls-43" d="M383.647,247.728a.65.65,0,0,1-.325-1.211l5.894-3.4a.648.648,0,0,1,.649,1.123l-5.9,3.4A.649.649,0,0,1,383.647,247.728Z" transform="translate(-382.998 -243.027)"/>
        </g>
        <g id="Group_525" data-name="Group 525" transform="translate(10.605 10.06)">
          <g id="Group_521" data-name="Group 521">
            <path id="Path_3681" data-name="Path 3681" class="cls-43" d="M412.5,242.612H400.973a1.083,1.083,0,0,1-1.082-1.081,1.228,1.228,0,0,1,.011-.142c.065-.776,0-3.138-.8-4.192a21.658,21.658,0,0,1-4.747-11.73,12.388,12.388,0,1,1,24.776,0,21.664,21.664,0,0,1-4.755,11.744c-.823,1.089-.857,3.456-.816,4.136a1.222,1.222,0,0,1,.015.185A1.081,1.081,0,0,1,412.5,242.612Zm-11.525-2.162a1.074,1.074,0,0,0-1.067.918A1.08,1.08,0,0,1,400.973,240.45Zm11.706.015a1.112,1.112,0,0,1,.417.165A1.094,1.094,0,0,0,412.679,240.465Zm-10.605-.015h9.331c.018-.49.06-.9.06-.909a7.249,7.249,0,0,1,1.2-3.645,19.508,19.508,0,0,0,4.312-10.432,10.226,10.226,0,1,0-20.451,0,19.5,19.5,0,0,0,4.3,10.419,7.2,7.2,0,0,1,1.192,3.661C402.018,239.555,402.055,239.963,402.074,240.45Z" transform="translate(-394.36 -213.078)"/>
          </g>
          <g id="Group_522" data-name="Group 522" transform="translate(5.926 29.688)">
            <path id="Path_3682" data-name="Path 3682" class="cls-43" d="M415.05,259.56H404.288a1.081,1.081,0,1,1,0-2.162H415.05a1.081,1.081,0,1,1,0,2.162Z" transform="translate(-403.206 -257.398)"/>
          </g>
          <g id="Group_523" data-name="Group 523" transform="translate(6.722 31.998)">
            <path id="Path_3683" data-name="Path 3683" class="cls-43" d="M414.646,263.009h-9.168a1.081,1.081,0,1,1,0-2.162h9.168a1.081,1.081,0,0,1,0,2.162Z" transform="translate(-404.395 -260.847)"/>
          </g>
          <g id="Group_524" data-name="Group 524" transform="translate(8.068 34.248)">
            <path id="Path_3684" data-name="Path 3684" class="cls-43" d="M413.962,266.367h-6.475a1.081,1.081,0,0,1,0-2.162h6.475a1.081,1.081,0,1,1,0,2.162Z" transform="translate(-406.405 -264.205)"/>
          </g>
        </g>
      </g>
    </g>
    <g id="analysis" transform="translate(375.385 277.533)">
      <g id="ecommmerce_animation_left">
      <path id="Path_3685" data-name="Path 3685" class="cls-44" d="M672.7,428.266l9.758-2.714a68.9,68.9,0,0,0-.849-10.676l-10.01-.865a58.361,58.361,0,0,0-1.97-7.319l8.115-6.05a68.3,68.3,0,0,0-4.627-9.533l-9.651,2.807a59.463,59.463,0,0,0-4.625-6.25l5.375-8.562a69.2,69.2,0,0,0-7.707-7.149l-7.991,6.11a58.571,58.571,0,0,0-6.707-4.233l1.916-9.917A67.9,67.9,0,0,0,634,360.1l-5.25,8.594a58.928,58.928,0,0,0-7.878-1.482l-1.792-9.922q-2.582-.194-5.215-.2t-5.215.2l-1.792,9.922a59,59,0,0,0-7.879,1.482l-5.25-8.594a67.879,67.879,0,0,0-9.722,3.818l1.916,9.917a58.661,58.661,0,0,0-6.709,4.233l-7.99-6.11a69.028,69.028,0,0,0-7.707,7.149l5.373,8.562a59.351,59.351,0,0,0-4.623,6.25l-9.651-2.807a68.293,68.293,0,0,0-4.628,9.533l8.116,6.05a58.608,58.608,0,0,0-1.972,7.319l-10.01.865a69.244,69.244,0,0,0-.849,10.676l9.76,2.714a59.216,59.216,0,0,0,.77,7.3L546.775,440a68.1,68.1,0,0,0,3.081,10.37l10.085-1a58.357,58.357,0,0,0,3.26,6.339l-6.822,7.393a68.681,68.681,0,0,0,6.671,8.648l9.038-4.569a59.052,59.052,0,0,0,5.171,4.629l-3.7,9.375a68.758,68.758,0,0,0,9.379,5.737l6.768-7.516a58.823,58.823,0,0,0,6.384,2.436l-.06,10.086a68.029,68.029,0,0,0,10.852,2l3.6-9.448c1.121.062,2.251.1,3.389.1s2.267-.035,3.389-.1l3.6,9.448a68.038,68.038,0,0,0,10.853-2l-.06-10.086a58.813,58.813,0,0,0,6.383-2.436l6.768,7.516a68.8,68.8,0,0,0,9.379-5.737l-3.7-9.375a59.334,59.334,0,0,0,5.172-4.629l9.038,4.569a69.066,69.066,0,0,0,6.671-8.648l-6.825-7.393a58.487,58.487,0,0,0,3.262-6.339l10.085,1a68.022,68.022,0,0,0,3.08-10.37l-9.032-4.43A59.228,59.228,0,0,0,672.7,428.266Zm-58.833,46.7a49.456,49.456,0,1,1,49.455-49.457A49.455,49.455,0,0,1,613.869,474.963Z" transform="translate(-545.277 -357.09)"/>
      <g id="Group_526" data-name="Group 526" transform="translate(0 0)">
        <path id="Path_3686" data-name="Path 3686" class="cls-35" d="M590.851,529.677l-3.347,8.488c.119.086.242.167.362.253l3.333-8.455C591.082,529.869,590.968,529.771,590.851,529.677Z" transform="translate(-559.218 -414.069)"/>
        <path id="Path_3687" data-name="Path 3687" class="cls-35" d="M568.258,504.987l-6.408,6.944c.148.228.308.449.459.674l6.364-6.9C568.531,505.471,568.4,505.228,568.258,504.987Z" transform="translate(-550.749 -405.918)"/>
        <path id="Path_3688" data-name="Path 3688" class="cls-35" d="M556.38,474.368l-8.866,4.348c.075.354.165.7.246,1.052l8.786-4.31C556.485,475.1,556.434,474.732,556.38,474.368Z" transform="translate(-546.016 -395.809)"/>
        <path id="Path_3689" data-name="Path 3689" class="cls-35" d="M672.742,460.1a49.443,49.443,0,0,1-98.879,0c0,.2-.015.39-.015.586a49.455,49.455,0,1,0,98.909,0C672.757,460.492,672.744,460.3,672.742,460.1Z" transform="translate(-554.71 -391.099)"/>
        <path id="Path_3690" data-name="Path 3690" class="cls-35" d="M731.227,432.55l-.3.227a58.375,58.375,0,0,1,1.97,7.319l10.01.865a68.928,68.928,0,0,1,.824,9.511l.025-.007a68.9,68.9,0,0,0-.849-10.676l-10.01-.865A58.325,58.325,0,0,0,731.227,432.55Z" transform="translate(-606.567 -382.003)"/>
        <path id="Path_3691" data-name="Path 3691" class="cls-35" d="M715.233,403.5l-.417.663a59.442,59.442,0,0,1,4.625,6.25l9.651-2.807a68.375,68.375,0,0,1,4.256,8.639l.372-.278a68.294,68.294,0,0,0-4.627-9.533l-9.651,2.807A59.187,59.187,0,0,0,715.233,403.5Z" transform="translate(-601.25 -372.411)"/>
        <path id="Path_3692" data-name="Path 3692" class="cls-35" d="M689.391,382.33a58.581,58.581,0,0,1,6.707,4.233l7.991-6.11a69.1,69.1,0,0,1,7.262,6.686l.446-.709a69.2,69.2,0,0,0-7.707-7.149l-7.991,6.11a58.748,58.748,0,0,0-6.5-4.118Z" transform="translate(-592.856 -364.416)"/>
        <path id="Path_3693" data-name="Path 3693" class="cls-35" d="M621.1,545.074l-.053,8.916.007,0,.053-8.915Z" transform="translate(-570.293 -419.153)"/>
        <path id="Path_3694" data-name="Path 3694" class="cls-35" d="M723.316,505.71l6.365,6.9c.151-.226.311-.446.46-.674l-6.41-6.944C723.592,505.228,723.458,505.471,723.316,505.71Z" transform="translate(-604.056 -405.918)"/>
        <path id="Path_3695" data-name="Path 3695" class="cls-35" d="M674.215,545.077l.053,8.916.007,0-.053-8.917Z" transform="translate(-587.846 -419.152)"/>
        <path id="Path_3696" data-name="Path 3696" class="cls-35" d="M702.332,529.962l3.334,8.455c.119-.086.243-.166.362-.253l-3.347-8.488C702.564,529.771,702.45,529.869,702.332,529.962Z" transform="translate(-597.128 -414.069)"/>
        <path id="Path_3697" data-name="Path 3697" class="cls-35" d="M734.355,475.459l8.786,4.31c.08-.352.17-.7.245-1.052l-8.865-4.348C734.468,474.732,734.416,475.1,734.355,475.459Z" transform="translate(-607.701 -395.809)"/>
        <path id="Path_3698" data-name="Path 3698" class="cls-35" d="M556.944,407.6l9.651,2.807a59.337,59.337,0,0,1,4.623-6.25l-.417-.663a59.168,59.168,0,0,0-4.207,5.741l-9.651-2.807a68.29,68.29,0,0,0-4.628,9.533l.372.278A68.28,68.28,0,0,1,556.944,407.6Z" transform="translate(-547.601 -372.411)"/>
        <path id="Path_3699" data-name="Path 3699" class="cls-35" d="M580.221,380.453l7.99,6.11a58.659,58.659,0,0,1,6.709-4.233l-.2-1.058a58.7,58.7,0,0,0-6.5,4.118l-7.99-6.11a69.02,69.02,0,0,0-7.707,7.149l.445.709A68.974,68.974,0,0,1,580.221,380.453Z" transform="translate(-554.269 -364.416)"/>
        <path id="Path_3700" data-name="Path 3700" class="cls-35" d="M546.126,440.961l10.01-.865a58.612,58.612,0,0,1,1.972-7.319l-.3-.227a58.68,58.68,0,0,0-1.667,6.374l-10.01.865a69.245,69.245,0,0,0-.849,10.676l.025.007A69.175,69.175,0,0,1,546.126,440.961Z" transform="translate(-545.277 -382.003)"/>
        <path id="Path_3701" data-name="Path 3701" class="cls-35" d="M612.824,361.269l5.25,8.594a59.006,59.006,0,0,1,7.879-1.482l1.792-9.922q2.582-.194,5.215-.2t5.215.2l1.792,9.922a58.938,58.938,0,0,1,7.878,1.482l5.25-8.594a68,68,0,0,1,9.515,3.722l.208-1.076A67.9,67.9,0,0,0,653.1,360.1l-5.25,8.594a58.928,58.928,0,0,0-7.878-1.482l-1.792-9.922q-2.582-.194-5.215-.2t-5.215.2l-1.792,9.922a59,59,0,0,0-7.879,1.482l-5.25-8.594a67.879,67.879,0,0,0-9.722,3.818l.208,1.076A68.045,68.045,0,0,1,612.824,361.269Z" transform="translate(-564.368 -357.09)"/>
      </g>
    </g>
      <path id="Path_3702" data-name="Path 3702" class="cls-45" d="M627.835,480.018a40.257,40.257,0,1,1,40.257-40.257A40.257,40.257,0,0,1,627.835,480.018Z" transform="translate(-559.243 -371.093)"/>
      <g id="Group_527" data-name="Group 527" transform="translate(46.234 49.229)">
        <path id="Path_3703" data-name="Path 3703" class="cls-35" d="M623.3,476.019v-15.53l-8.257,8.158-.746-.755v8.128Z" transform="translate(-614.298 -440.456)"/>
        <path id="Path_3704" data-name="Path 3704" class="cls-35" d="M639.116,473.753V460.787l-6.509-7.162-2.495,2.46v17.668Z" transform="translate(-619.519 -438.19)"/>
        <path id="Path_3705" data-name="Path 3705" class="cls-35" d="M654.935,475.344v-16.9l-7.664,7.049-1.343-1.46v11.311Z" transform="translate(-624.74 -439.781)"/>
        <path id="Path_3706" data-name="Path 3706" class="cls-35" d="M670.753,470.539V443.89l-9.005,8.285v18.364Z" transform="translate(-629.963 -434.976)"/>
        <path id="Path_3707" data-name="Path 3707" class="cls-35" d="M654.9,430.583,637.2,446.65l-8.253-8.485a1.982,1.982,0,0,0-1.419-.6,2.027,2.027,0,0,0-1.419.594l-11.759,11.984V454.3l.757.74,12.414-12.653,8.174,8.405a1.982,1.982,0,0,0,2.754.085L655.1,435.764V430.8Z" transform="translate(-614.315 -430.583)"/>
      </g>
    </g>
    <g id="socially" transform="translate(72.648 175.447)">
      <g id="ecommmerce_animation_left">
      <path id="Path_3708" data-name="Path 3708" class="cls-46" d="M220.755,275.865l9.759-2.713a68.891,68.891,0,0,0-.849-10.676l-10.01-.866a58.372,58.372,0,0,0-1.971-7.318l8.116-6.051a68.37,68.37,0,0,0-4.628-9.534l-9.651,2.809a59.242,59.242,0,0,0-4.624-6.25l5.374-8.563a69.078,69.078,0,0,0-7.707-7.149l-7.99,6.11a58.759,58.759,0,0,0-6.709-4.233l1.916-9.917a68.052,68.052,0,0,0-9.722-3.818l-5.25,8.594a58.871,58.871,0,0,0-7.879-1.482l-1.792-9.923q-2.583-.194-5.215-.195t-5.215.195l-1.793,9.923a58.862,58.862,0,0,0-7.878,1.482l-5.25-8.594a68.018,68.018,0,0,0-9.722,3.818l1.916,9.917a58.817,58.817,0,0,0-6.709,4.233l-7.989-6.11a69.02,69.02,0,0,0-7.707,7.149l5.374,8.563a59.242,59.242,0,0,0-4.625,6.25l-9.651-2.809a68.3,68.3,0,0,0-4.628,9.534l8.116,6.051a58.374,58.374,0,0,0-1.971,7.318l-10.01.866a68.9,68.9,0,0,0-.849,10.676l9.76,2.713a59.224,59.224,0,0,0,.77,7.3L94.829,287.6a68.09,68.09,0,0,0,3.081,10.37l10.084-1a58.661,58.661,0,0,0,3.261,6.339l-6.823,7.393a68.963,68.963,0,0,0,6.671,8.648l9.038-4.568a59.145,59.145,0,0,0,5.172,4.629l-3.7,9.373A68.433,68.433,0,0,0,131,334.52l6.768-7.514a58.647,58.647,0,0,0,6.382,2.435l-.06,10.088a68.181,68.181,0,0,0,10.852,2l3.6-9.45q1.683.1,3.389.1t3.39-.1l3.6,9.45a68.187,68.187,0,0,0,10.852-2l-.06-10.088a58.6,58.6,0,0,0,6.383-2.435l6.768,7.514a68.385,68.385,0,0,0,9.379-5.737l-3.7-9.373a59.055,59.055,0,0,0,5.172-4.629l9.038,4.568a68.813,68.813,0,0,0,6.671-8.648l-6.823-7.393a58.54,58.54,0,0,0,3.262-6.339l10.084,1a68.085,68.085,0,0,0,3.08-10.37l-9.032-4.429A59.228,59.228,0,0,0,220.755,275.865Zm-58.832,45.119A47.877,47.877,0,1,1,209.8,273.107,47.877,47.877,0,0,1,161.923,320.984Z" transform="translate(-93.331 -204.69)"/>
      <g id="Group_528" data-name="Group 528" transform="translate(0 0)">
        <path id="Path_3709" data-name="Path 3709" class="cls-35" d="M138.9,377.276l-3.347,8.486c.119.086.243.167.363.253l3.333-8.453C139.134,377.469,139.02,377.37,138.9,377.276Z" transform="translate(-107.271 -261.669)"/>
        <path id="Path_3710" data-name="Path 3710" class="cls-35" d="M237.443,229.929a58.752,58.752,0,0,1,6.709,4.233l7.99-6.11a68.97,68.97,0,0,1,7.262,6.686l.445-.709a69.071,69.071,0,0,0-7.707-7.149l-7.99,6.11a58.754,58.754,0,0,0-6.5-4.119Z" transform="translate(-140.909 -212.016)"/>
        <path id="Path_3711" data-name="Path 3711" class="cls-35" d="M104.432,321.968l-8.865,4.347c.075.353.165.7.246,1.052l8.786-4.309C104.538,322.7,104.487,322.332,104.432,321.968Z" transform="translate(-94.069 -243.409)"/>
        <path id="Path_3712" data-name="Path 3712" class="cls-35" d="M116.31,352.586,109.9,359.53c.149.228.308.449.46.675l6.364-6.9C116.584,353.07,116.449,352.827,116.31,352.586Z" transform="translate(-98.802 -253.518)"/>
        <path id="Path_3713" data-name="Path 3713" class="cls-35" d="M219.995,307.7a47.866,47.866,0,0,1-95.725,0c0,.2-.015.39-.015.586a47.877,47.877,0,0,0,95.755,0C220.01,308.092,220,307.9,219.995,307.7Z" transform="translate(-103.54 -238.699)"/>
        <path id="Path_3714" data-name="Path 3714" class="cls-35" d="M279.279,280.149l-.3.228a58.369,58.369,0,0,1,1.971,7.318l10.01.866a68.928,68.928,0,0,1,.824,9.511l.025-.007a68.891,68.891,0,0,0-.849-10.676l-10.01-.866A58.377,58.377,0,0,0,279.279,280.149Z" transform="translate(-154.621 -229.603)"/>
        <path id="Path_3715" data-name="Path 3715" class="cls-35" d="M263.286,251.1l-.416.664a59.238,59.238,0,0,1,4.624,6.25l9.651-2.809a68.492,68.492,0,0,1,4.256,8.638l.372-.277a68.371,68.371,0,0,0-4.628-9.534l-9.651,2.809A59.031,59.031,0,0,0,263.286,251.1Z" transform="translate(-149.304 -220.011)"/>
        <path id="Path_3716" data-name="Path 3716" class="cls-35" d="M169.154,392.673l-.053,8.918.007,0,.054-8.918Z" transform="translate(-118.346 -266.752)"/>
        <path id="Path_3717" data-name="Path 3717" class="cls-35" d="M271.37,353.309l6.364,6.9c.151-.226.31-.447.459-.675l-6.408-6.944C271.647,352.827,271.512,353.07,271.37,353.309Z" transform="translate(-152.11 -253.518)"/>
        <path id="Path_3718" data-name="Path 3718" class="cls-35" d="M250.384,377.562l3.334,8.453c.12-.086.244-.166.362-.253l-3.347-8.486C250.616,377.37,250.5,377.469,250.384,377.562Z" transform="translate(-145.182 -261.669)"/>
        <path id="Path_3719" data-name="Path 3719" class="cls-35" d="M222.267,392.675l.053,8.918.007,0-.054-8.918Z" transform="translate(-135.899 -266.752)"/>
        <path id="Path_3720" data-name="Path 3720" class="cls-35" d="M282.408,323.059l8.786,4.309c.08-.351.17-.7.245-1.052l-8.865-4.347C282.521,322.332,282.469,322.7,282.408,323.059Z" transform="translate(-155.754 -243.409)"/>
        <path id="Path_3721" data-name="Path 3721" class="cls-35" d="M105,255.2l9.651,2.809a59.244,59.244,0,0,1,4.625-6.25l-.417-.664a59.153,59.153,0,0,0-4.208,5.741L105,254.028a68.294,68.294,0,0,0-4.628,9.534l.372.277A68.4,68.4,0,0,1,105,255.2Z" transform="translate(-95.655 -220.011)"/>
        <path id="Path_3722" data-name="Path 3722" class="cls-35" d="M128.274,228.052l7.989,6.11a58.816,58.816,0,0,1,6.709-4.233l-.2-1.058a58.82,58.82,0,0,0-6.5,4.119l-7.989-6.11a69.018,69.018,0,0,0-7.707,7.149l.445.709A68.975,68.975,0,0,1,128.274,228.052Z" transform="translate(-102.323 -212.016)"/>
        <path id="Path_3723" data-name="Path 3723" class="cls-35" d="M94.18,288.561l10.01-.866a58.376,58.376,0,0,1,1.971-7.318l-.3-.228a58.39,58.39,0,0,0-1.667,6.374l-10.01.866a68.9,68.9,0,0,0-.849,10.676l.025.007A68.929,68.929,0,0,1,94.18,288.561Z" transform="translate(-93.331 -229.603)"/>
        <path id="Path_3724" data-name="Path 3724" class="cls-35" d="M160.877,208.868l5.25,8.594a58.859,58.859,0,0,1,7.878-1.482l1.793-9.923q2.582-.194,5.215-.195t5.215.195l1.792,9.923a58.87,58.87,0,0,1,7.879,1.482l5.25-8.594a68.018,68.018,0,0,1,9.515,3.722l.208-1.076a68.05,68.05,0,0,0-9.722-3.818l-5.25,8.594a58.873,58.873,0,0,0-7.879-1.482l-1.792-9.923q-2.583-.194-5.215-.195t-5.215.195l-1.793,9.923a58.862,58.862,0,0,0-7.878,1.482l-5.25-8.594a68.02,68.02,0,0,0-9.722,3.818l.208,1.076A67.987,67.987,0,0,1,160.877,208.868Z" transform="translate(-112.421 -204.69)"/>
      </g>
    </g>
      <path id="Path_3725" data-name="Path 3725" class="cls-47" d="M178.865,323.9a34.214,34.214,0,1,1,34.215-34.214A34.214,34.214,0,0,1,178.865,323.9Z" transform="translate(-110.275 -221.455)"/>
      <g id="Group_529" data-name="Group 529" transform="translate(45.854 55.276)">
        <path id="Path_3726" data-name="Path 3726" class="cls-35" d="M177.452,303.034h0c-1.017-.425-3.42-1.261-4.906-1.7-.128-.041-.147-.046-.147-.573a3.041,3.041,0,0,1,.353-1.247,6.326,6.326,0,0,0,.495-1.693,3.791,3.791,0,0,0,.73-1.762,2.323,2.323,0,0,0-.021-1.48.729.729,0,0,1-.034-.092,9.712,9.712,0,0,1,.164-2.081,3.808,3.808,0,0,0-.8-2.748,4.1,4.1,0,0,0-3.136-1.5h-.937a4.079,4.079,0,0,0-3.107,1.5,3.812,3.812,0,0,0-.8,2.748,9.782,9.782,0,0,1,.166,2.077c-.011.035-.023.066-.035.1a2.319,2.319,0,0,0-.023,1.48,3.813,3.813,0,0,0,.73,1.762,6.426,6.426,0,0,0,.5,1.693,2.991,2.991,0,0,1,.2,1.265c0,.528-.019.535-.139.572-1.537.454-3.985,1.338-4.9,1.738l-.019-.023v3.861h15.667Z" transform="translate(-161.785 -287.523)"/>
        <path id="Path_3727" data-name="Path 3727" class="cls-35" d="M221.952,303.034h0c-1.017-.425-3.421-1.261-4.907-1.7-.127-.041-.147-.046-.147-.573a3.042,3.042,0,0,1,.354-1.247,6.326,6.326,0,0,0,.5-1.693,3.785,3.785,0,0,0,.729-1.762,2.324,2.324,0,0,0-.021-1.48.859.859,0,0,1-.034-.092,9.758,9.758,0,0,1,.164-2.081,3.807,3.807,0,0,0-.8-2.748,4.1,4.1,0,0,0-3.136-1.5h-.938a4.077,4.077,0,0,0-3.107,1.5,3.812,3.812,0,0,0-.8,2.748,9.877,9.877,0,0,1,.166,2.077c-.011.035-.023.066-.035.1a2.309,2.309,0,0,0-.023,1.48,3.8,3.8,0,0,0,.731,1.762,6.4,6.4,0,0,0,.494,1.693,2.992,2.992,0,0,1,.2,1.265c0,.528-.019.535-.139.572-1.537.454-3.986,1.338-4.9,1.738l-.019-.023v3.861h15.667Z" transform="translate(-176.477 -287.523)"/>
        <path id="Path_3728" data-name="Path 3728" class="cls-35" d="M201.114,308.121h0c-1.43-.6-4.808-1.769-6.9-2.385-.18-.058-.207-.066-.207-.809a4.289,4.289,0,0,1,.5-1.752,8.851,8.851,0,0,0,.7-2.377,5.338,5.338,0,0,0,1.026-2.478,3.26,3.26,0,0,0-.03-2.081,1.085,1.085,0,0,1-.046-.131,13.526,13.526,0,0,1,.23-2.923,5.354,5.354,0,0,0-1.125-3.864,5.773,5.773,0,0,0-4.408-2.111h-1.318a5.745,5.745,0,0,0-4.367,2.11,5.35,5.35,0,0,0-1.125,3.864,13.748,13.748,0,0,1,.233,2.919c-.015.049-.033.092-.049.136a3.266,3.266,0,0,0-.031,2.081,5.359,5.359,0,0,0,1.026,2.478,8.95,8.95,0,0,0,.7,2.377,4.224,4.224,0,0,1,.287,1.78c0,.742-.027.751-.2.8-2.161.638-5.6,1.881-6.885,2.443l-.027-.035V313.6h22.024Z" transform="translate(-167.498 -287.209)"/>
      </g>
    </g>
    <g id="line" transform="translate(69.043 118.717)">
      <line id="Line_28" data-name="Line 28" class="cls-48" y2="64.108" transform="translate(189.908 313.688)"/>
      <line id="Line_29" data-name="Line 29" class="cls-48" x1="24.32" y1="24.32" transform="translate(0 50.309)"/>
      <line id="Line_30" data-name="Line 30" class="cls-48" y1="50.309"/>
      <line id="Line_31" data-name="Line 31" class="cls-48" x2="19.548" transform="translate(56.18 222.394)"/>
      <line id="Line_32" data-name="Line 32" class="cls-48" y2="85.145" transform="translate(75.728 222.394)"/>
      <line id="Line_33" data-name="Line 33" class="cls-48" x2="56.218" transform="translate(338.324 137.257)"/>
      <line id="Line_34" data-name="Line 34" class="cls-48" y1="46.512" transform="translate(394.542 90.745)"/>
      <line id="Line_35" data-name="Line 35" class="cls-48" y1="13.981" x2="13.981" transform="translate(270.419 16.399)"/>
      <line id="Line_36" data-name="Line 36" class="cls-48" x2="29.796" transform="translate(284.399 16.399)"/>
      <line id="Line_37" data-name="Line 37" class="cls-48" x1="16.148" y2="22.173" transform="translate(345.898 293.655)"/>
      <line id="Line_38" data-name="Line 38" class="cls-48" y2="43.056" transform="translate(345.898 315.828)"/>
    </g>
    <path id="Path_3729" data-name="Path 3729" class="cls-35" d="M89.268,118.717a2.6,2.6,0,1,0-2.6,2.6A2.6,2.6,0,0,0,89.268,118.717Z" transform="translate(-17.623 0)"/>
    <path id="Path_3730" data-name="Path 3730" class="cls-35" d="M558.319,143.2a2.6,2.6,0,1,0-2.6,2.6A2.6,2.6,0,0,0,558.319,143.2Z" transform="translate(-172.479 -8.082)"/>
    <path id="Path_3731" data-name="Path 3731" class="cls-35" d="M678.266,256.115a2.6,2.6,0,1,0-2.6,2.6A2.6,2.6,0,0,0,678.266,256.115Z" transform="translate(-212.079 -45.361)"/>
    <path id="Path_3732" data-name="Path 3732" class="cls-35" d="M605.648,654.484a2.6,2.6,0,1,0-2.6,2.6A2.6,2.6,0,0,0,605.648,654.484Z" transform="translate(-188.105 -176.882)"/>
    <path id="Path_3733" data-name="Path 3733" class="cls-35" d="M372.775,682.717a2.6,2.6,0,1,0-2.6,2.6A2.6,2.6,0,0,0,372.775,682.717Z" transform="translate(-111.222 -186.203)"/>
    <path id="Path_3734" data-name="Path 3734" class="cls-35" d="M202.32,578.442a2.6,2.6,0,1,0-2.6,2.6A2.6,2.6,0,0,0,202.32,578.442Z" transform="translate(-54.947 -151.777)"/>
  </g>
</svg>
