<svg xmlns="http://www.w3.org/2000/svg" width="128.023" height="127.954" viewBox="0 0 128.023 127.954">
  <defs>
    <style>
      .cls-1 {
        fill: #fff;
      }
    </style>
  </defs>
  <g id="graph" transform="translate(0 0)">
    <path id="Path_3052" data-name="Path 3052" class="cls-1" d="M22.67,128a2,2,0,0,0,2-2V110.32a7,7,0,0,0-7-7H7a7,7,0,0,0-7,7V126a2,2,0,0,0,2,2ZM4,110.32a3,3,0,0,1,3-3H17.67a3,3,0,0,1,3,3V124H4Z" transform="translate(0.015 -0.046)"/>
    <path id="Path_3053" data-name="Path 3053" class="cls-1" d="M57.11,128a2,2,0,0,0,2-2V69a7,7,0,0,0-7-7H41.44a7,7,0,0,0-7,7v57a2,2,0,0,0,2,2ZM38.45,69a3,3,0,0,1,3-3H52.11a3,3,0,0,1,3,3v55H38.45Z" transform="translate(0.015 -0.046)"/>
    <path id="Path_3054" data-name="Path 3054" class="cls-1" d="M91.56,128a2,2,0,0,0,2-2V89.65a7,7,0,0,0-7-7H75.89a7,7,0,0,0-7,7V126a2,2,0,0,0,2,2ZM72.89,89.65a3,3,0,0,1,3-3H86.56a3,3,0,0,1,3,3V124H72.89Z" transform="translate(0.015 -0.046)"/>
    <path id="Path_3055" data-name="Path 3055" class="cls-1" d="M128,48.32a7,7,0,0,0-7-7H110.33a7,7,0,0,0-7,7V126a2,2,0,0,0,2,2H126a2,2,0,0,0,2-2ZM124,124H107.33V48.32a3,3,0,0,1,3-3H121a3,3,0,0,1,3,3Z" transform="translate(0.015 -0.046)"/>
    <path id="Path_3056" data-name="Path 3056" class="cls-1" d="M12.33,86.63a12.33,12.33,0,0,0,9.32-20.38L40.53,43.63A12.27,12.27,0,0,0,56.17,41l13.59,8.16a12.32,12.32,0,1,0,20.77-3.51L109.42,23a12.33,12.33,0,1,0-3.07-2.56L87.47,43.06a12.27,12.27,0,0,0-15.64,2.65l-13.6-8.16a12.32,12.32,0,1,0-20.78,3.51L18.58,63.68a12.33,12.33,0,1,0-6.25,22.95ZM115.67,4a8.33,8.33,0,1,1-8.33,8.33A8.33,8.33,0,0,1,115.67,4ZM81.22,45.35a8.33,8.33,0,1,1-8.33,8.33A8.33,8.33,0,0,1,81.22,45.35ZM46.78,24.68A8.33,8.33,0,1,1,38.45,33a8.33,8.33,0,0,1,8.33-8.32ZM12.33,66A8.33,8.33,0,1,1,4,74.29,8.33,8.33,0,0,1,12.33,66Z" transform="translate(0.015 -0.046)"/>
  </g>
</svg>
