<svg xmlns="http://www.w3.org/2000/svg" width="144.005" height="115" viewBox="0 0 144.005 115">
  <defs>
    <style>
      .cls-1 {
        fill: #fff;
      }
    </style>
  </defs>
  <path id="hands" class="cls-1" d="M115.135,13.814,101.6,27.281a14.9,14.9,0,0,0-2.483-2.006l-.287-.159a15.919,15.919,0,0,0-8.469-2.483,16.365,16.365,0,0,0-5.954,1.146h0a13.913,13.913,0,0,0-2.165,1.114l-.637.35-.318.223a15.919,15.919,0,0,0-20.154,1.783L47.606,13.75,9.4,51.956,22.836,65.487,27.229,70.1a3.174,3.174,0,1,0,4.489-4.489L46.364,50.969,52,45.334,63.239,34.095,65.5,31.834A9.552,9.552,0,0,1,76.26,30.083L61.01,45.334a9.551,9.551,0,0,0,0,13.5l2.229,2.261a9.551,9.551,0,0,0,13.531,0l15.76-15.76,33.112,33.112c3.184,3.184,3.693,6.622,2.9,7.418l-2.261,2.261a2.834,2.834,0,0,1-2.356,0,11.271,11.271,0,0,1-5.03-3.184h0L107.844,74.084h0a3.2,3.2,0,1,0-4.521,4.521h0l11.143,11.143c3.184,3.184,3.693,6.622,2.9,7.386L115.135,99.4a2.9,2.9,0,0,1-2.356,0,11.4,11.4,0,0,1-5.062-3.184L96.573,85.068a3.186,3.186,0,1,0-4.489,4.521L103.2,100.7c3.184,3.184,3.725,6.622,2.929,7.418l-2.261,2.261c-.8.764-4.2.287-7.418-2.929L85.3,96.339a3.184,3.184,0,0,0-4.489,0,2.452,2.452,0,0,0-.446.669l-.7-.223a9.551,9.551,0,0,0-2.356-9.01l-2.261-2.229a9.551,9.551,0,0,0-3.98-2.356,9.552,9.552,0,0,0-2.452-9.424l-2.261-2.229a9.551,9.551,0,0,0-12.417-.891,9.742,9.742,0,0,0-1.91-2.8l-2.2-2.356a9.551,9.551,0,0,0-13.5,0l-4.521,4.489a9.552,9.552,0,0,0,0,13.5l2.261,2.261a9.551,9.551,0,0,0,6.368,2.738,9.329,9.329,0,0,0,2.738,6.368l2.261,2.229h0a9.552,9.552,0,0,0,6.368,2.77,9.551,9.551,0,0,0,2.738,6.368l2.261,2.261a9.329,9.329,0,0,0,6.368,2.738,9.329,9.329,0,0,0,2.738,6.368l2.261,2.261h0a9.551,9.551,0,0,0,6.75,2.77A9.106,9.106,0,0,0,79,121.65L81,123.656A15.919,15.919,0,0,0,91.8,128.75a7.768,7.768,0,0,0,5.476-2.356l2.261-2.261a8.151,8.151,0,0,0,2.038-7,9.711,9.711,0,0,0,1.305.159,7.9,7.9,0,0,0,5.667-2.165l2.229-2.26a8.023,8.023,0,0,0,2.038-6.973,9.714,9.714,0,0,0,1.305.159,7.8,7.8,0,0,0,5.444-2.165l2.261-2.261a8.151,8.151,0,0,0,2.038-7,9.712,9.712,0,0,0,1.305.159,7.832,7.832,0,0,0,5.667-2.165l2.229-2.261c3.789-3.789,2.515-10.984-2.9-16.4l-1.592-1.592-31.3-31.52h0a3.186,3.186,0,0,0-4.489-4.521L72.5,56.6a3.184,3.184,0,0,1-4.489,0l-2.261-2.261a3.184,3.184,0,0,1,0-4.489l18.02-18.02a9.743,9.743,0,0,1,13.5,0l2.261,2.261,11.239,11.239,5.6,5.635,14.646,14.646-2.261,2.229a3.186,3.186,0,1,0,4.489,4.521l2.261-2.261,4.362-4.617L153.4,51.956ZM18.315,52.02,47.574,22.76l9.01,9.01L41.971,46.384,36.335,52.02l-9.106,9.074ZM36.335,79.05a3.184,3.184,0,0,1,0-4.521l4.489-4.489a3.184,3.184,0,0,1,4.521,0L47.574,72.3a3.184,3.184,0,0,1,0,4.489l-4.426,4.617a3.184,3.184,0,0,1-4.489,0ZM47.574,90.289a3.184,3.184,0,0,1,0-4.489L52.1,81.406l5.317-5.317a3.184,3.184,0,0,1,4.521,0l2.229,2.261a3.184,3.184,0,0,1,0,4.489l-2.611,2.643h0l-7.227,7.2a3.184,3.184,0,0,1-4.489,0ZM58.845,101.56a3.184,3.184,0,0,1,0-4.521l7.2-7.2a3.229,3.229,0,0,1,4.521,0L72.79,92.1a3.184,3.184,0,0,1,0,4.489L70.084,99.3l-4.489,4.521a3.184,3.184,0,0,1-4.489,0Zm13.5,13.5L70.084,112.8a3.184,3.184,0,0,1,0-4.489l4.521-4.489a3.184,3.184,0,0,1,4.489,0l2.261,2.229a3.184,3.184,0,0,1,0,4.521l-4.489,4.489a3.184,3.184,0,0,1-4.521.064Zm19.612-2.9c3.184,3.184,3.693,6.622,2.9,7.418l-2.229,2.229a2.77,2.77,0,0,1-2.356,0,11.111,11.111,0,0,1-5.062-3.184l-1.592-1.592,2.229-2.261a9.552,9.552,0,0,0,2.77-6.368l3.184,3.184ZM135.48,61.094l-9.01-9.01-5.731-5.7L106.125,31.77l9.01-9.01L144.394,52.02Z" transform="translate(-9.4 -13.75)"/>
</svg>
