<svg xmlns="http://www.w3.org/2000/svg" viewBox="0 0 1240.907 492.976">
  <defs>
    <style>
      .cls-1, .cls-5, .cls-9 {
        fill: #de5f4d;
      }

      .cls-1, .cls-7 {
        font-size: 233px;
      }

      .cls-1, .cls-2, .cls-3, .cls-4, .cls-5, .cls-6, .cls-7, .cls-8 {
        font-family: TypoGraphica;
      }

      .cls-1 {
        letter-spacing: 0.07em;
      }

      .cls-10, .cls-2, .cls-6, .cls-7, .cls-8 {
        fill: #f9f8f3;
      }

      .cls-2 {
        font-size: 234px;
      }

      .cls-2, .cls-3, .cls-4, .cls-5, .cls-6, .cls-8 {
        letter-spacing: 0.08em;
      }

      .cls-3, .cls-4 {
        fill: #e6e7e8;
      }

      .cls-3 {
        font-size: 231px;
      }

      .cls-4, .cls-5, .cls-8 {
        font-size: 236px;
      }

      .cls-6 {
        font-size: 227px;
      }

      .cls-7 {
        letter-spacing: 0.01em;
      }
    </style>
  </defs>
  <g id="hf" transform="translate(0.027 -88.79)">
    <g id="Layer_4" data-name="Layer 4" transform="translate(394.277 88.79)">
      <g id="Group">
        <text id="H" class="cls-1" transform="translate(0 235)"><tspan x="0" y="0">H</tspan></text>
        <text id="igh" class="cls-2" transform="translate(157.813 236)"><tspan x="0" y="0">igh</tspan></text>
        <text id="_" data-name="  " class="cls-3" transform="translate(510.84 233)"><tspan x="0" y="0" xml:space="preserve">  </tspan></text>
        <text id="_2" data-name="        " class="cls-4" transform="translate(0 410.976)"><tspan x="0" y="0" xml:space="preserve">        </tspan></text>
        <text id="F" class="cls-5" transform="translate(392.551 410.976)"><tspan x="0" y="0">F</tspan></text>
        <text id="i" class="cls-6" transform="translate(516.804 401.976)"><tspan x="0" y="0">i</tspan></text>
        <text id="v" class="cls-7" transform="translate(579.436 407.976)"><tspan x="0" y="0">v</tspan></text>
        <text id="e" class="cls-8" transform="translate(710.603 410.976)"><tspan x="0" y="0">e</tspan></text>
      </g>
    </g>
    <g id="Layer_6" data-name="Layer 6" transform="translate(-0.027 141.73)">
      <path id="Path_1" data-name="Path 1" class="cls-9" d="M389.191,496.41a74.243,74.243,0,0,1-8.633,8.087c4.892,9.219,14.637,31.336-10.877,50.926C340,578.228,267.4,585.748,264.331,586.112h-.121q-10.614.91-19.934.91c-29.678,0-49.511-6.793-59.094-20.217-8.087-11.422-6.469-24.119-4.67-30.932-10.108-9.846-39.18-40.939-50.542-80.867-13.667-47.833-27.9-136.868-28.465-142.569a3.932,3.932,0,0,0-.121-1.132c-.667-5.742-2.466-20.985,7.137-32.772,5.115-6.287,12.534-10.513,22.117-12.6-2.588-13.161-5.6-39.726,7.541-55.394,6.732-8.087,16.376-12.13,28.748-12.13,2.972-13.707,12.959-32.246,36.815-34.247,19.509-1.617,34.369,8.35,44.053,29.658,6.651-4.266,16.8-9.057,27.96-8.269,10.108.728,19.044,5.8,26.4,15.041,16.436,20.7,28.627,84.163,34.551,121.14,9.846-21.349,27.05-47.752,52.341-47.186,11.4.263,19.368,3.821,23.694,10.594,7.885,12.373.222,29.881-4.852,41.465-1.011,2.345-2.022,4.549-2.386,5.782-2.891,9.037-10.573,33.034,7.137,72.376C430.049,443.482,396.247,489.213,389.191,496.41Z" transform="translate(-100.702 -163.956)"/>
      <path id="Path_2" data-name="Path 2" class="cls-10" d="M412.592,404.747c-17.71-39.342-10.108-63.339-7.137-72.376.4-1.233,1.375-3.437,2.386-5.782,5.074-11.584,12.737-29.092,4.852-41.465C408.367,278.351,400.4,274.793,389,274.53c-25.291-.566-42.455,25.837-52.341,47.186-5.924-36.977-18.2-100.437-34.551-121.139-7.359-9.239-16.174-14.314-26.4-15.041-11.16-.788-21.309,4.043-27.96,8.269C238,172.5,223.2,162.528,203.691,164.146c-23.856,2.022-33.843,20.54-36.815,34.247-12.373,0-22.016,4.043-28.748,12.13-13.141,15.668-10.108,42.233-7.541,55.394-9.583,2.022-17,6.308-22.117,12.6-9.6,11.786-7.8,27.03-7.137,32.771,0,.425.1.809.121,1.132.566,5.7,14.8,94.736,28.465,142.569,11.4,39.908,40.434,71,50.542,80.868-1.8,6.813-3.457,19.509,4.67,30.932C194.715,580.27,214.548,587,244.226,587q9.3,0,19.934-.91h.121c3.073-.3,75.672-7.885,105.35-30.689,25.514-19.59,15.769-41.708,10.877-50.926a74.264,74.264,0,0,0,8.633-8.087C396.3,489.233,430.1,443.5,412.592,404.747Zm-33.418,81.737-.485.445-.4.546a123.555,123.555,0,0,1-9.421,8.35L367.468,497c-4.852,4.043-1.84,9.563-.222,12.514,5.58,10.109,10.108,22.117-6.065,34.652-26.181,20.217-95.767,27.576-98.092,27.818-44.053,3.72-60.307-5.236-66.19-13.383-6.894-9.583-1.7-21.915-1.658-22l2.022-4.711-3.841-3.457c-.364-.323-37.381-33.863-49.814-77.41C130.466,405.05,116.152,316.358,115.627,311a4.8,4.8,0,0,0-.162-1.435c-.526-4.488-1.759-15.041,4.043-22.239,4.043-4.852,10.816-7.743,20.379-8.612l8.531-.748-2.365-8.248c-2.77-9.664-7.662-37.523,2.992-50.2,4.043-4.711,9.825-7.015,17.932-7.015a49.681,49.681,0,0,1,5.317.3l7.42.789.384-7.46c0-1.071,1.6-25.979,24.826-27.919,19.145-1.617,27.313,13.586,32.347,26.99.4,1.051.728,1.9.991,2.527l4.043,9.32,7.379-6.975c.121-.1,12.454-11.362,25.17-10.452,6.065.425,11.483,3.619,16.335,9.724,17.225,21.693,31.538,109.495,35.582,141.518l4.468,35.238,9.381-34.247c4.872-17.771,22.946-63.683,48.217-63.178,4.387.1,10.108.89,12.13,4.043,3.821,6.065-2.729,20.985-5.883,28.182a74.659,74.659,0,0,0-2.891,7.137c-3.032,9.441-12.231,38.21,7.7,82.505C414.877,444.17,379.437,486.221,379.174,486.484Z" transform="translate(-100.753 -163.976)"/>
      <path id="Path_3" data-name="Path 3" class="cls-10" d="M238.625,274.42a122.488,122.488,0,0,0-12.939,7.2,95.88,95.88,0,0,0-11.524,8.511,79.571,79.571,0,0,0-17.609,20.9c-.546.97-1.173,2.022-1.678,2.911l-1.456,3.012c-.546.97-.89,2.022-1.334,3.032a31.611,31.611,0,0,0-1.193,3.093,70.1,70.1,0,0,0-3.336,12.8,85.96,85.96,0,0,0,0,26.747,52.907,52.907,0,0,1-5.883-27.05A59.094,59.094,0,0,1,189.8,307.94a68.008,68.008,0,0,1,20.621-21.955A71.907,71.907,0,0,1,238.625,274.42Z" transform="translate(-18.146 -51.137)"/>
      <path id="Path_4" data-name="Path 4" class="cls-10" d="M140.72,296.119a130.819,130.819,0,0,1,23.391-14.334c4.144-2.022,8.451-3.8,12.8-5.459s8.815-3.012,13.3-4.286a157.436,157.436,0,0,1,27.515-4.953,135,135,0,0,1,27.717.3c-9.239.647-18.337,1.536-27.374,2.931-4.508.728-9,1.476-13.424,2.466s-8.9,2.022-13.262,3.235-8.734,2.507-13.02,4.043-8.552,3.053-12.8,4.71C157.136,288.093,148.908,291.955,140.72,296.119Z" transform="translate(-59.919 -59.21)"/>
    </g>
  </g>
</svg>
