<svg id="iconfinder_facebook_278425" xmlns="http://www.w3.org/2000/svg" width="62.405" height="62.405" viewBox="0 0 62.405 62.405">
  <defs>
    <style>
      .cls-1 {
        fill: #ddeced;
      }
    </style>
  </defs>
  <g id="Group_67" data-name="Group 67">
    <path id="Path_37" data-name="Path 37" class="cls-1" d="M32.2,0a31.2,31.2,0,1,0,31.2,31.2A31.2,31.2,0,0,0,32.2,0Zm0,58.993A27.79,27.79,0,1,1,59.992,31.2,27.79,27.79,0,0,1,32.2,58.993Z" transform="translate(-1)"/>
    <path id="Path_38" data-name="Path 38" class="cls-1" d="M67.327,40A26.327,26.327,0,1,0,93.654,66.327,26.327,26.327,0,0,0,67.327,40ZM76.59,54.029l-4.065,0c-3.187,0-3.8,1.522-3.8,3.755v3.462h7.6l-.99,7.714H68.721V85.829H60.792V68.961H54.164V61.248h6.629V57.022c0-6.6,4.013-10.2,9.874-10.2a54.13,54.13,0,0,1,5.924.3Z" transform="translate(-36.125 -35.125)"/>
  </g>
</svg>
