<svg id="iconfinder_twitter_278411" xmlns="http://www.w3.org/2000/svg" width="62.405" height="62.405" viewBox="0 0 62.405 62.405">
  <defs>
    <style>
      .cls-1 {
        fill: #ddeced;
      }
    </style>
  </defs>
  <g id="Group_66" data-name="Group 66">
    <path id="Path_35" data-name="Path 35" class="cls-1" d="M67.327,40.5A26.327,26.327,0,1,0,93.654,66.827,26.327,26.327,0,0,0,67.327,40.5ZM84.263,58.744c-1.455,1.423-1.532,1.579-1.532,2.769a26.4,26.4,0,0,1-1.766,7.764,22.587,22.587,0,0,1-8.649,10.041,22.2,22.2,0,0,1-17.039,1.915c-1.844-.569-5.013-2.019-5.013-2.278a7.8,7.8,0,0,1,2.13-.207,14.768,14.768,0,0,0,6.961-1.915l1.4-.828-1.61-.544c-2.286-.776-4.338-2.562-4.857-4.244-.156-.544-.1-.569,1.351-.569l1.507-.026-1.273-.6a8.344,8.344,0,0,1-3.559-3.313,9.178,9.178,0,0,1-.935-3.468,3.094,3.094,0,0,1,1.221.284c1.792.647,2.026.492.987-.6a7.4,7.4,0,0,1-1.61-7.66l.442-1.242,1.714,1.682a21.233,21.233,0,0,0,12.364,6l1.3.155-.078-1.268a7.411,7.411,0,0,1,5.065-7.454,8.986,8.986,0,0,1,4.545-.1,10.623,10.623,0,0,1,2.208,1.139l1.273.854,1.4-.44a14.582,14.582,0,0,0,2.286-.88c.441-.233.831-.362.831-.285a7.511,7.511,0,0,1-1.766,2.769c-1.091,1.165-.779,1.268,1.428.492,1.325-.44,1.351-.44,1.091.052A16.942,16.942,0,0,1,84.263,58.744Z" transform="translate(-36.125 -35.625)"/>
    <path id="Path_36" data-name="Path 36" class="cls-1" d="M32.2.5a31.2,31.2,0,1,0,31.2,31.2A31.2,31.2,0,0,0,32.2.5Zm0,58.993A27.79,27.79,0,1,1,59.992,31.7,27.79,27.79,0,0,1,32.2,59.493Z" transform="translate(-1 -0.5)"/>
  </g>
</svg>
