<svg id="iconfinder_instagram_278420" xmlns="http://www.w3.org/2000/svg" width="62.405" height="62.405" viewBox="0 0 62.405 62.405">
  <defs>
    <style>
      .cls-1 {
        fill: #ddeced;
      }
    </style>
  </defs>
  <path id="Path_39" data-name="Path 39" class="cls-1" d="M39.831,28.111h4.5V40.443a2.889,2.889,0,0,1-2.886,2.886H22.962a2.889,2.889,0,0,1-2.887-2.886V28.111h4.5a8.237,8.237,0,1,0,15.26,0ZM32.2,36.5a5.293,5.293,0,1,0-5.3-5.3A5.309,5.309,0,0,0,32.2,36.5ZM43.925,19.51H38.568v5.356h5.356ZM58.53,31.2A26.327,26.327,0,1,1,32.2,4.875,26.327,26.327,0,0,1,58.53,31.2ZM47.265,21.961a5.828,5.828,0,0,0-5.822-5.821H22.962a5.828,5.828,0,0,0-5.822,5.821V40.443a5.828,5.828,0,0,0,5.822,5.821H41.443a5.827,5.827,0,0,0,5.821-5.821V21.961ZM63.405,31.2A31.2,31.2,0,1,1,32.2,0,31.2,31.2,0,0,1,63.405,31.2Zm-3.413,0A27.79,27.79,0,1,0,32.2,58.993,27.79,27.79,0,0,0,59.992,31.2Z" transform="translate(-1)"/>
</svg>
