<svg id="list" xmlns="http://www.w3.org/2000/svg" width="112.5" height="112.5" viewBox="0 0 112.5 112.5">
  <defs>
    <style>
      .cls-1 {
        fill: #fff;
      }
    </style>
  </defs>
  <path id="Path_3057" data-name="Path 3057" class="cls-1" d="M37.279,37.5H10.809A3.277,3.277,0,0,0,7.5,40.809V67.279a3.277,3.277,0,0,0,3.309,3.309H37.279a3.277,3.277,0,0,0,3.309-3.309V40.809A3.277,3.277,0,0,0,37.279,37.5ZM33.971,63.971H14.118V44.118H33.971Z" transform="translate(-7.5 2.206)"/>
  <path id="Path_3058" data-name="Path 3058" class="cls-1" d="M37.279,7.5H10.809A3.277,3.277,0,0,0,7.5,10.809V37.279a3.277,3.277,0,0,0,3.309,3.309H37.279a3.277,3.277,0,0,0,3.309-3.309V10.809A3.277,3.277,0,0,0,37.279,7.5ZM33.971,33.971H14.118V14.118H33.971Z" transform="translate(-7.5 -7.5)"/>
  <path id="Path_3059" data-name="Path 3059" class="cls-1" d="M37.279,67.5H10.809A3.277,3.277,0,0,0,7.5,70.809V97.279a3.277,3.277,0,0,0,3.309,3.309H37.279a3.277,3.277,0,0,0,3.309-3.309V70.809A3.277,3.277,0,0,0,37.279,67.5ZM33.971,93.971H14.118V74.118H33.971Z" transform="translate(-7.5 11.912)"/>
  <path id="Path_3060" data-name="Path 3060" class="cls-1" d="M106.985,12.5H40.809a3.309,3.309,0,0,0,0,6.618h66.176a3.309,3.309,0,0,0,0-6.618Z" transform="translate(2.206 -5.882)"/>
  <path id="Path_3061" data-name="Path 3061" class="cls-1" d="M106.985,42.5H40.809a3.309,3.309,0,0,0,0,6.618h66.176a3.309,3.309,0,0,0,0-6.618Z" transform="translate(2.206 3.824)"/>
  <path id="Path_3062" data-name="Path 3062" class="cls-1" d="M106.985,72.5H40.809a3.309,3.309,0,0,0,0,6.618h66.176a3.309,3.309,0,0,0,0-6.618Z" transform="translate(2.206 13.529)"/>
  <path id="Path_3063" data-name="Path 3063" class="cls-1" d="M40.809,29.118H80.515a3.309,3.309,0,0,0,0-6.618H40.809a3.309,3.309,0,0,0,0,6.618Z" transform="translate(2.206 -2.647)"/>
  <path id="Path_3064" data-name="Path 3064" class="cls-1" d="M40.809,59.118H80.515a3.309,3.309,0,0,0,0-6.618H40.809a3.309,3.309,0,1,0,0,6.618Z" transform="translate(2.206 7.059)"/>
  <path id="Path_3065" data-name="Path 3065" class="cls-1" d="M80.515,82.5H40.809a3.309,3.309,0,0,0,0,6.618H80.515a3.309,3.309,0,0,0,0-6.618Z" transform="translate(2.206 16.765)"/>
</svg>
