<svg xmlns="http://www.w3.org/2000/svg" width="123.376" height="41.827" viewBox="0 0 123.376 41.827">
  <defs>
    <style>
      .cls-1 {
        fill: #de5f4d;
      }

      .cls-2 {
        fill: #e6e7e8;
      }

      .cls-3 {
        fill: #f9f8f3;
      }
    </style>
  </defs>
  <g id="logo-HighFive" transform="translate(-275.265 -117.429)">
    <g id="Layer_3" data-name="Layer 3" transform="translate(312.309 117.428)">
      <path id="Path_3070" data-name="Path 3070" class="cls-1" d="M506.725,146.991h-5.153v-7.238h-3.349v7.238H493.07V128.34h5.153v7.238h3.349V128.34h5.153Z" transform="translate(-493.07 -126.484)"/>
      <path id="Path_3071" data-name="Path 3071" class="cls-2" d="M591.9,118.163a2.407,2.407,0,0,1,0,3.58,2.84,2.84,0,0,1-3.813,0,2.4,2.4,0,0,1,0-3.58A2.84,2.84,0,0,1,591.9,118.163Zm.592,19.771h-5V124.05h5Z" transform="translate(-571.263 -117.428)"/>
      <path id="Path_3072" data-name="Path 3072" class="cls-2" d="M642.562,168.148a5.913,5.913,0,0,1-1.777,4.638,6.9,6.9,0,0,1-4.791,1.6,14.217,14.217,0,0,1-5.953-1.133l1.34-3.891a8.8,8.8,0,0,0,4.044.825q2.211,0,2.211-2.041v-.488a6.164,6.164,0,0,1-6.492-1.4,6.929,6.929,0,0,1-1.624-4.83,6.781,6.781,0,0,1,1.971-5.23,7.984,7.984,0,0,1,5.63-1.83,12.784,12.784,0,0,1,5.442,1.031Zm-4.92-3.985v-5.934a4.68,4.68,0,0,0-1.005-.1q-2.112,0-2.112,3.092,0,3.143,2.112,3.143a2.229,2.229,0,0,0,1.005-.2Z" transform="translate(-606.313 -148.079)"/>
      <path id="Path_3073" data-name="Path 3073" class="cls-2" d="M733.014,139.322h-5v-8.784q0-1.466-1.52-1.468a2.572,2.572,0,0,0-1.056.206v10.046h-5V119.1h5v6.568a6.749,6.749,0,0,1,2.473-.463,5.315,5.315,0,0,1,3.8,1.236,4.671,4.671,0,0,1,1.3,3.555Z" transform="translate(-681.77 -118.816)"/>
      <path id="Path_3074" data-name="Path 3074" class="cls-1" d="M730.641,255.967h-5.126v2.963h4.509V263.1h-4.509v7.24H720.44V251.69h10.2Z" transform="translate(-681.77 -228.855)"/>
      <path id="Path_3075" data-name="Path 3075" class="cls-2" d="M795.792,241.522a2.407,2.407,0,0,1,0,3.582,2.84,2.84,0,0,1-3.813,0,2.41,2.41,0,0,1,0-3.582A2.845,2.845,0,0,1,795.792,241.522Zm.594,19.775h-5V247.41h5Z" transform="translate(-740.48 -219.808)"/>
      <path id="Path_3076" data-name="Path 3076" class="cls-2" d="M844.564,279.72l-4.922,13.887H833.82L828.9,279.72h5.667l1.7,7.342.437,2.422h.053q.17-1.262.437-2.422l1.7-7.342Z" transform="translate(-771.783 -252.118)"/>
      <path id="Path_3077" data-name="Path 3077" class="cls-2" d="M935.8,284.491c0,.634-.019,1.116-.053,1.442l-8.347,1.06q.566,1.469,2.912,1.468a9.065,9.065,0,0,0,3.968-.85l1.34,3.686a13.738,13.738,0,0,1-5.72,1.031,7.1,7.1,0,0,1-5.5-2.061,8.313,8.313,0,0,1-.065-10.487,6.456,6.456,0,0,1,5.024-2.009,6.088,6.088,0,0,1,4.779,1.854A7.006,7.006,0,0,1,935.8,284.491Zm-4.818-1.005a2.558,2.558,0,0,0-.464-1.636,1.558,1.558,0,0,0-1.287-.58,2.041,2.041,0,0,0-1.56.645,3,3,0,0,0-.631,2.041Z" transform="translate(-849.472 -250.5)"/>
    </g>
    <g id="Layer_2" data-name="Layer 2" transform="translate(275.265 119.627)">
      <g id="Layer_6" data-name="Layer 6" transform="translate(0 0)">
        <path id="Path_3078" data-name="Path 3078" class="cls-3" d="M304.375,152.841c-1.655-3.675-.944-5.917-.667-6.761.037-.117.129-.321.223-.541.475-1.083,1.191-2.721.454-3.874a1.975,1.975,0,0,0-1-.782c-.1-.034-.2-.065-.3-.092a4.035,4.035,0,0,0-.9-.112c-2.364-.054-3.971,2.413-4.891,4.408v-.017a.034.034,0,0,0,0,.014c-.554-3.456-1.7-9.385-3.231-11.319a4.238,4.238,0,0,0-.9-.85q-.148-.1-.306-.185a3.107,3.107,0,0,0-1.253-.361,4.406,4.406,0,0,0-2.612.772h0a4.541,4.541,0,0,0-2.439-2.561l-.134-.048a3.912,3.912,0,0,0-1.531-.158,3.82,3.82,0,0,0-3.439,3.2,3.3,3.3,0,0,0-2.686,1.133c-1.228,1.464-.947,3.947-.706,5.177a3.527,3.527,0,0,0-2.066,1.177,4.045,4.045,0,0,0-.667,3.061.369.369,0,0,1,.012.105,135.833,135.833,0,0,0,2.66,13.322,18.529,18.529,0,0,0,4.721,7.555,3.442,3.442,0,0,0,.437,2.891,4.262,4.262,0,0,0,2.4,1.522l.068.019c.042.014.087.024.129.036l.184.044a12.534,12.534,0,0,0,2.721.265q.869,0,1.871-.085h.01c.287-.029,7.07-.736,9.844-2.867a3.436,3.436,0,0,0,1.02-4.762,7.045,7.045,0,0,0,.806-.755C302.852,160.739,306,156.462,304.375,152.841Zm-3.123,7.638-.044.041-.037.051a11.605,11.605,0,0,1-.881.781l-.131.109c-.454.379-.17.895-.02,1.17a2.176,2.176,0,0,1-.566,3.231c-2.447,1.888-8.949,2.577-9.165,2.6-4.118.34-5.635-.49-6.184-1.25a2.3,2.3,0,0,1-.155-2.056l.189-.44-.359-.323a17.792,17.792,0,0,1-4.655-7.232c-1.228-4.3-2.565-12.586-2.614-13.084a.454.454,0,0,0-.015-.134,2.8,2.8,0,0,1,.378-2.077,2.679,2.679,0,0,1,1.9-.8l.8-.071-.221-.77c-.259-.9-.716-3.505.279-4.691a2.067,2.067,0,0,1,1.677-.655,4.414,4.414,0,0,1,.5.029l.692.073.037-.7c0-.1.15-2.427,2.318-2.607,1.789-.151,2.551,1.269,3.024,2.521.036.1.068.179.092.236l.378.871.689-.651a3.753,3.753,0,0,1,2.352-.976,2.154,2.154,0,0,1,1.531.908c1.609,2.026,2.946,10.23,3.323,13.222l.418,3.293.876-3.2c.456-1.66,2.143-5.953,4.505-5.9.41,0,.944.083,1.134.378.357.566-.255,1.961-.551,2.633-.1.218-.192.44-.27.667-.282.883-1.143,3.572.719,7.71C304.589,156.525,301.277,160.455,301.252,160.479Z" transform="translate(-275.265 -130.356)"/>
        <path id="Path_3079" data-name="Path 3079" class="cls-1" d="M290.532,173.618a2.3,2.3,0,0,1-.156-2.056l.189-.44-.359-.323a17.829,17.829,0,0,1-4.653-7.232c-1.228-4.3-2.566-12.586-2.614-13.084a.51.51,0,0,0-.015-.134,2.806,2.806,0,0,1,.378-2.078,2.693,2.693,0,0,1,1.9-.8l.8-.07-.213-.77c-.259-.9-.716-3.505.279-4.691a2.062,2.062,0,0,1,1.677-.655,4.421,4.421,0,0,1,.5.029l.692.073.037-.7c0-.1.15-2.427,2.318-2.609,1.789-.151,2.551,1.269,3.022,2.522.037.1.07.17.094.235l.378.871.689-.65a3.751,3.751,0,0,1,2.352-.978,2.16,2.16,0,0,1,1.531.908c1.609,2.027,2.946,10.232,3.323,13.223l.418,3.293.876-3.2c.456-1.66,2.143-5.953,4.505-5.9.41.009.944.082,1.134.378.355.566-.255,1.961-.551,2.633-.1.218-.192.44-.27.667-.282.883-1.143,3.572.719,7.71,1.4,3.141-1.91,7.07-1.935,7.1l-.044.041-.037.051c-.281.274-.575.536-.881.781l-.131.109c-.454.378-.17.895-.02,1.17a2.176,2.176,0,0,1-.566,3.231c-2.447,1.89-8.949,2.577-9.165,2.6C292.591,175.215,291.081,174.378,290.532,173.618Z" transform="translate(-281.582 -136.753)"/>
        <path id="Path_3" data-name="Path 3" class="cls-3" d="M370.192,253a11.653,11.653,0,0,0-1.209.68,8.934,8.934,0,0,0-1.077.8,7.4,7.4,0,0,0-1.645,1.952c-.051.09-.111.189-.158.272l-.136.281c-.051.09-.082.189-.124.284a2.469,2.469,0,0,0-.111.289,6.587,6.587,0,0,0-.313,1.191,8.1,8.1,0,0,0,0,2.5,4.959,4.959,0,0,1-.549-2.527,5.509,5.509,0,0,1,.76-2.582,6.326,6.326,0,0,1,1.925-2.051A6.745,6.745,0,0,1,370.192,253Z" transform="translate(-349.625 -232.141)"/>
        <path id="Path_4" data-name="Path 4" class="cls-3" d="M319.45,246.963a12.2,12.2,0,0,1,2.185-1.339c.388-.19.791-.355,1.191-.51s.823-.282,1.242-.4a14.823,14.823,0,0,1,2.572-.463,12.56,12.56,0,0,1,2.59.029c-.864.06-1.714.143-2.551.274-.422.068-.842.138-1.255.23s-.832.189-1.238.3-.816.233-1.218.378-.8.286-1.191.44C320.984,246.213,320.224,246.573,319.45,246.963Z" transform="translate(-311.935 -224.835)"/>
      </g>
    </g>
  </g>
</svg>
