<svg xmlns="http://www.w3.org/2000/svg" width="32.556" height="24.728" viewBox="0 0 32.556 24.728"><defs><style>.a{fill:#53a2a9;}</style></defs><path class="a" d="M28.692,45.945H3.864A3.794,3.794,0,0,0,0,49.656V66.961a3.794,3.794,0,0,0,3.864,3.711H28.692a3.794,3.794,0,0,0,3.864-3.711V49.656A3.794,3.794,0,0,0,28.692,45.945Zm0,21.451H3.864c-.313,0-.588-.2-.588-.435V51.944l11.229,9.48a1.279,1.279,0,0,0,.824.3h1.9a1.28,1.28,0,0,0,.824-.3l11.23-9.48V66.961C29.28,67.193,29.005,67.4,28.692,67.4ZM16.278,58.473,5.356,49.221H27.2Z" transform="translate(0 -45.945)"/></svg>