<svg xmlns="http://www.w3.org/2000/svg" viewBox="0 0 40.882 40.403"><defs><style>.a{opacity:0.5;}.b{fill:#fff;}</style></defs><g class="a" transform="translate(0 -3)"><g transform="translate(23.951 23.218)"><path class="b" d="M303.308,261.963a1.536,1.536,0,1,1,1.757-1.52.8.8,0,1,0,1.6,0,3.177,3.177,0,0,0-2.555-3.027V257a.8.8,0,1,0-1.6,0v.415a3.177,3.177,0,0,0-2.555,3.027,3.246,3.246,0,0,0,3.354,3.117,1.536,1.536,0,1,1-1.757,1.52.8.8,0,1,0-1.6,0,3.177,3.177,0,0,0,2.555,3.027v.345a.8.8,0,0,0,1.6,0v-.345a3.177,3.177,0,0,0,2.555-3.027A3.246,3.246,0,0,0,303.308,261.963Z" transform="translate(-299.954 -256.201)"/></g><g transform="translate(30.656 20.39)"><path class="b" d="M389.319,224.625a10.4,10.4,0,0,0-4.25-3.761.8.8,0,1,0-.692,1.439,8.791,8.791,0,0,1,3.959,12.04.8.8,0,1,0,1.41.75,10.392,10.392,0,0,0-.427-10.469Z" transform="translate(-383.924 -220.785)"/></g><g transform="translate(27.707 19.449)"><path class="b" d="M347.852,209H347.8a.8.8,0,0,0,0,1.6h.05a.8.8,0,0,0,0-1.6Z" transform="translate(-347 -209.001)"/></g><g transform="translate(16.928 24.536)"><path class="b" d="M218.582,285.925a8.791,8.791,0,0,1-3.959-12.04.8.8,0,0,0-1.41-.75,10.385,10.385,0,0,0,4.677,14.23.8.8,0,1,0,.692-1.439Z" transform="translate(-212.002 -272.711)"/></g><g transform="translate(25.262 38.612)"><path class="b" d="M317.226,449h-.046a.8.8,0,1,0-.007,1.6h.054a.8.8,0,1,0,0-1.6Z" transform="translate(-316.378 -448.999)"/></g><g transform="translate(0 3)"><g transform="translate(0 0)"><path class="b" d="M30.934,16.747a3.665,3.665,0,0,0-.355-.652h2.079a3.673,3.673,0,0,0,0-7.346H26.264A3.671,3.671,0,0,0,23.236,3H3.673a3.673,3.673,0,0,0,0,7.346h6.394a3.663,3.663,0,0,0,0,4.152H7.985A3.671,3.671,0,0,0,5.7,21.046a3.666,3.666,0,0,0,0,5.749,3.666,3.666,0,0,0,0,5.749,3.671,3.671,0,0,0,2.282,6.548h9.41A13.571,13.571,0,1,0,30.934,16.747Zm1.724-6.4a2.076,2.076,0,1,1,0,4.152H13.1a2.076,2.076,0,1,1,0-4.152ZM3.673,8.749a2.076,2.076,0,1,1,0-4.152H23.236a2.076,2.076,0,0,1,0,4.152ZM7.985,16.1H27.548a2.075,2.075,0,0,1,.906.209c-.378-.032-.76-.049-1.145-.049A13.532,13.532,0,0,0,17.7,20.247H7.985a2.076,2.076,0,1,1,0-4.152Zm0,5.749h8.353A13.535,13.535,0,0,0,14.286,26h-6.3a2.076,2.076,0,1,1,0-4.152Zm0,5.749h5.934a13.585,13.585,0,0,0-.049,4.152H7.985a2.076,2.076,0,0,1,0-4.152Zm0,9.9a2.076,2.076,0,0,1,0-4.152H14.2a13.521,13.521,0,0,0,1.916,4.152Zm19.323,4.312A11.977,11.977,0,1,1,39.285,29.829,11.991,11.991,0,0,1,27.308,41.806Z" transform="translate(0 -3)"/></g></g></g></svg>