<svg xmlns="http://www.w3.org/2000/svg" width="25.506" height="34.486" viewBox="0 0 25.506 34.486"><defs><style>.a{fill:#53a2a9;}</style></defs><g transform="translate(-108.668 -172)"><path class="a" d="M151.6,188.608a8.3,8.3,0,1,0-8.3-8.3A8.3,8.3,0,0,0,151.6,188.608Zm0-13.38a5.092,5.092,0,1,1-5.092,5.092A5.091,5.091,0,0,1,151.6,175.229Zm0,0" transform="translate(-30.176)"/><path class="a" d="M121.421,325.123a12.463,12.463,0,0,0-9.027,3.775,13.322,13.322,0,0,0-3.726,9.429,1.611,1.611,0,0,0,1.606,1.606h22.294a1.611,1.611,0,0,0,1.606-1.606,13.322,13.322,0,0,0-3.726-9.429,12.462,12.462,0,0,0-9.027-3.775Zm-9.429,11.6a9.823,9.823,0,0,1,2.7-5.574,9.462,9.462,0,0,1,13.46,0,9.875,9.875,0,0,1,2.7,5.574Zm0,0" transform="translate(0 -133.446)"/></g></svg>