<svg xmlns="http://www.w3.org/2000/svg" width="31.278" height="31.324" viewBox="0 0 31.278 31.324"><defs><style>.a{fill:#53a2a9;}</style></defs><g transform="translate(-0.344)"><g transform="translate(0.344 0)">
<path class="a"  d="M25.077,45a3.081,3.081,0,0,0-2.235-1.025,3.186,3.186,0,0,0-2.261,1.018l-2.089,2.082c-.172-.093-.344-.179-.509-.264-.238-.119-.463-.231-.654-.35A22.706,22.706,0,0,1,11.888,41.5,13.4,13.4,0,0,1,10.1,38.684c.542-.5,1.045-1.011,1.534-1.507.185-.185.37-.377.555-.562a3.033,3.033,0,0,0,0-4.575l-1.8-1.8c-.2-.2-.416-.417-.615-.628-.4-.41-.813-.833-1.243-1.23a3.129,3.129,0,0,0-2.215-.972,3.238,3.238,0,0,0-2.248.972l-.013.013L1.806,30.659A4.837,4.837,0,0,0,.372,33.733a11.589,11.589,0,0,0,.846,4.905,28.465,28.465,0,0,0,5.057,8.436,31.111,31.111,0,0,0,10.36,8.112A16.141,16.141,0,0,0,22.453,56.9c.139.007.284.013.416.013a4.982,4.982,0,0,0,3.815-1.64c.007-.013.02-.02.026-.033a15.029,15.029,0,0,1,1.157-1.2c.284-.271.575-.555.859-.853a3.3,3.3,0,0,0,1-2.287,3.177,3.177,0,0,0-1.018-2.268Zm2.367,6.961c-.007,0-.007.007,0,0-.258.278-.522.529-.807.807a17.383,17.383,0,0,0-1.276,1.322,3.187,3.187,0,0,1-2.486,1.051c-.1,0-.2,0-.3-.007a14.339,14.339,0,0,1-5.157-1.547,29.367,29.367,0,0,1-9.758-7.642A26.84,26.84,0,0,1,2.9,38.017a9.439,9.439,0,0,1-.74-4.139,3.035,3.035,0,0,1,.912-1.963L5.323,29.66a1.5,1.5,0,0,1,1-.469,1.414,1.414,0,0,1,.965.463l.02.02c.4.377.787.767,1.19,1.183.2.212.416.423.628.641l1.8,1.8a1.262,1.262,0,0,1,0,2.049c-.192.192-.377.383-.569.569-.555.569-1.084,1.1-1.659,1.613-.013.013-.026.02-.033.033a1.348,1.348,0,0,0-.344,1.5l.02.059a14.49,14.49,0,0,0,2.135,3.484l.007.007a24.265,24.265,0,0,0,5.871,5.342,9.025,9.025,0,0,0,.813.443c.238.119.463.231.654.35.026.013.053.033.079.046a1.433,1.433,0,0,0,.654.165,1.414,1.414,0,0,0,1-.456l2.261-2.261a1.5,1.5,0,0,1,1-.5,1.346,1.346,0,0,1,.952.483l.013.013,3.643,3.643A1.307,1.307,0,0,1,27.444,51.959Z" transform="translate(-0.344 -25.594)"/>
<path class="a"  d="M245.678,87.7a8.508,8.508,0,0,1,6.928,6.928.887.887,0,0,0,.879.74,1.181,1.181,0,0,0,.152-.013.893.893,0,0,0,.734-1.031,10.288,10.288,0,0,0-8.383-8.383.9.9,0,0,0-1.031.727A.883.883,0,0,0,245.678,87.7Z" transform="translate(-228.773 -80.245)"/>
<path class="a"  d="M263.616,13.818a16.941,16.941,0,0,0-13.8-13.8.891.891,0,1,0-.291,1.759,15.131,15.131,0,0,1,12.336,12.336.887.887,0,0,0,.879.74,1.18,1.18,0,0,0,.152-.013A.876.876,0,0,0,263.616,13.818Z" transform="translate(-232.351 0)"/></g></g></svg>