<svg xmlns="http://www.w3.org/2000/svg" viewBox="0 0 39.822 35"><defs><style>.a{fill:#fff;opacity:0.5;}</style></defs><path class="a" d="M38.663,4.667H28.078V3.5a3.5,3.5,0,0,0-3.5-3.5H15.245a3.5,3.5,0,0,0-3.5,3.5V4.667H1.167A1.17,1.17,0,0,0,0,5.833V31.5A3.5,3.5,0,0,0,3.5,35H36.322a3.5,3.5,0,0,0,3.5-3.5V5.853a1.133,1.133,0,0,0-1.159-1.186ZM14.078,3.5a1.168,1.168,0,0,1,1.167-1.167h9.333A1.168,1.168,0,0,1,25.745,3.5V4.667H14.078ZM37.037,7,33.414,17.869a1.165,1.165,0,0,1-1.107.8H25.745V17.5a1.167,1.167,0,0,0-1.167-1.167H15.245A1.167,1.167,0,0,0,14.078,17.5v1.167H7.515a1.165,1.165,0,0,1-1.107-.8L2.786,7ZM23.411,18.667V21h-7V18.667ZM37.489,31.5a1.168,1.168,0,0,1-1.167,1.167H3.5A1.168,1.168,0,0,1,2.334,31.5V13.023L4.2,18.607A3.5,3.5,0,0,0,7.515,21h6.563v1.167a1.167,1.167,0,0,0,1.167,1.167h9.333a1.167,1.167,0,0,0,1.167-1.167V21h6.563a3.5,3.5,0,0,0,3.32-2.393l1.862-5.584Zm0,0" transform="translate(0)"/></svg>