<svg xmlns="http://www.w3.org/2000/svg" width="128" height="128" viewBox="0 0 128 128">
  <defs>
    <style>
      .cls-1 {
        fill: #fff;
        fill-rule: evenodd;
      }
    </style>
  </defs>
  <path id="settings" class="cls-1" d="M46,96.291a1.355,1.355,0,0,1-1.81-.507L37.5,84.19a1.363,1.363,0,0,1,.467-1.821l5.942-3.641a2.6,2.6,0,0,0,1.12-2l-.005-9.454a2.628,2.628,0,0,0-1.121-2l-5.942-3.641a1.355,1.355,0,0,1-.466-1.821l6.692-11.59A1.362,1.362,0,0,1,46,47.709l6.124,3.326a2.6,2.6,0,0,0,2.3-.03l8.19-4.722a2.624,2.624,0,0,0,1.175-1.972l.182-6.966a1.356,1.356,0,0,1,1.344-1.315l13.383-.008a1.361,1.361,0,0,1,1.344,1.314l.182,6.969a2.6,2.6,0,0,0,1.175,1.973L89.581,51a2.627,2.627,0,0,0,2.3.031L98,47.709a1.355,1.355,0,0,1,1.81.507L106.5,59.81a1.363,1.363,0,0,1-.467,1.821l-5.942,3.641a2.594,2.594,0,0,0-1.12,2l.005,9.454a2.628,2.628,0,0,0,1.121,2l5.942,3.641a1.355,1.355,0,0,1,.466,1.821l-6.692,11.59a1.362,1.362,0,0,1-1.81.507l-6.124-3.326a2.6,2.6,0,0,0-2.3.03l-8.19,4.722a2.624,2.624,0,0,0-1.175,1.972l-.182,6.966a1.356,1.356,0,0,1-1.344,1.315l-13.383.008a1.361,1.361,0,0,1-1.344-1.314L63.782,99.7a2.6,2.6,0,0,0-1.175-1.973L54.419,93a2.627,2.627,0,0,0-2.3-.031ZM72,136a64,64,0,1,1,64-64A64,64,0,0,1,72,136Zm0-6.1A57.9,57.9,0,1,0,14.1,72,57.9,57.9,0,0,0,72,129.9ZM64.1,85.676A15.792,15.792,0,1,1,85.676,79.9,15.792,15.792,0,0,1,64.1,85.676Z" transform="translate(-8 -8)"/>
</svg>
