<svg xmlns="http://www.w3.org/2000/svg" width="119.806" height="112.5" viewBox="0 0 119.806 112.5">
  <defs>
    <style>
      .cls-1 {
        fill: #fff;
      }
    </style>
  </defs>
  <g id="stairs" transform="translate(0 0)">
    <path id="Path_3066" data-name="Path 3066" class="cls-1" d="M20.685,144.54c0,2.008-1.341,3.635-3,3.635h-.732c-1.655,0-3-1.627-3-3.635V120.65c0-2.008,1.341-3.635,3-3.635h23.1c1.655,0,3-1.627,3-3.635V93.548c0-2.008,1.341-3.635,3-3.635H69.108c1.655,0,3-1.627,3-3.635V66.447c0-2.008,1.341-3.635,3-3.635H98.155c1.655,0,3-1.627,3-3.635V39.325c0-2.008,1.341-3.635,3-3.635h26.4c1.655,0,3,1.627,3,3.635v.808c0,2.008-1.341,3.635-3,3.635H110.872c-1.655,0-3,1.627-3,3.635V67.234c0,2.008-1.341,3.635-3,3.635H81.825c-1.655,0-3,1.627-3,3.635V94.336c0,2.008-1.341,3.635-3,3.635H52.778c-1.655,0-3,1.627-3,3.635v19.831c0,2.008-1.341,3.635-3,3.635H23.731c-1.655,0-3,1.627-3,3.635Z" transform="translate(-13.96 -35.69)"/>
    <path id="Path_3067" data-name="Path 3067" class="cls-1" d="M64.493,87.334,79.036,72.79v9.034a1.737,1.737,0,0,0,3.473,0V66.87h-15a1.737,1.737,0,1,0,0,3.473H76.53L61.986,84.887a1.751,1.751,0,0,0,2.507,2.447Z" transform="translate(37.296 24.638)"/>
  </g>
</svg>
